<svg width="580" height="752" viewBox="0 0 580 752" fill="none" xmlns="http://www.w3.org/2000/svg">
<path d="M-4.71534e-07 367.531C14.2841 381.914 46.9335 381.914 61.4726 367.531C46.6784 353.906 14.5392 352.14 -4.71534e-07 367.531Z" fill="#F4B3D7" fill-opacity="0.5"/>
<path d="M71.4402 367.531C85.7243 381.914 118.374 381.914 132.913 367.531C118.119 353.906 85.9794 352.14 71.4402 367.531Z" fill="#F4B3D7" fill-opacity="0.5"/>
<path d="M65.5737 299.942C51.2432 314.279 51.2435 347.049 65.5737 361.642C79.1481 346.793 80.9079 314.535 65.5737 299.942Z" fill="#F4B3D7" fill-opacity="0.5"/>
<path d="M39.8735 267.476C54.1576 281.86 86.807 281.86 101.346 267.476C86.5519 253.852 54.4127 252.086 39.8735 267.476Z" fill="#F4B3D7" fill-opacity="0.5"/>
<path d="M111.314 267.476C125.598 281.86 158.247 281.86 172.786 267.476C157.992 253.852 125.853 252.086 111.314 267.476Z" fill="#F4B3D7" fill-opacity="0.5"/>
<path d="M105.447 199.888C91.1168 214.225 91.1171 246.995 105.447 261.588C119.022 246.739 120.781 214.481 105.447 199.888Z" fill="#F4B3D7" fill-opacity="0.5"/>
<path d="M105.447 273.26C91.1168 287.596 91.1171 320.366 105.447 334.959C119.022 320.11 120.781 287.852 105.447 273.26Z" fill="#F4B3D7" fill-opacity="0.5"/>
<path d="M149.529 367.53C163.813 381.914 196.462 381.914 211.001 367.53C196.207 353.906 164.068 352.14 149.529 367.53Z" fill="#F4B3D7" fill-opacity="0.5"/>
<path d="M220.969 367.53C235.253 381.914 267.902 381.914 282.441 367.53C267.647 353.906 235.508 352.14 220.969 367.53Z" fill="#F4B3D7" fill-opacity="0.5"/>
<path d="M215.102 299.942C200.772 314.279 200.772 347.049 215.102 361.642C228.677 346.793 230.436 314.535 215.102 299.942Z" fill="#F4B3D7" fill-opacity="0.5"/>
<path d="M149.529 167.424C163.813 181.807 196.462 181.807 211.001 167.424C196.207 153.799 164.068 152.033 149.529 167.424Z" fill="#F4B3D7" fill-opacity="0.5"/>
<path d="M220.969 167.424C235.253 181.807 267.902 181.807 282.442 167.424C267.647 153.799 235.508 152.033 220.969 167.424Z" fill="#F4B3D7" fill-opacity="0.5"/>
<path d="M215.102 99.8352C200.772 114.172 200.772 146.942 215.102 161.535C228.677 146.686 230.436 114.428 215.102 99.8352Z" fill="#F4B3D7" fill-opacity="0.5"/>
<path d="M215.102 173.207C200.772 187.544 200.772 220.314 215.102 234.906C228.677 220.058 230.436 187.8 215.102 173.207Z" fill="#F4B3D7" fill-opacity="0.5"/>
<path d="M189.402 267.476C203.686 281.86 236.336 281.859 250.875 267.476C236.081 253.852 203.942 252.086 189.402 267.476Z" fill="#F4B3D7" fill-opacity="0.5"/>
<path d="M260.843 267.476C275.127 281.86 307.776 281.86 322.315 267.476C307.521 253.852 275.382 252.086 260.843 267.476Z" fill="#F4B3D7" fill-opacity="0.5"/>
<path d="M254.976 199.888C240.646 214.225 240.646 246.995 254.976 261.588C268.55 246.739 270.31 214.481 254.976 199.888Z" fill="#F4B3D7" fill-opacity="0.5"/>
<path d="M254.976 273.259C240.646 287.596 240.646 320.366 254.976 334.959C268.55 320.11 270.31 287.852 254.976 273.259Z" fill="#F4B3D7" fill-opacity="0.5"/>
<path d="M299.056 367.531C313.34 381.914 345.99 381.914 360.529 367.531C345.735 353.906 313.596 352.14 299.056 367.531Z" fill="#F4B3D7" fill-opacity="0.5"/>
<path d="M370.497 367.531C384.781 381.914 417.43 381.914 431.969 367.531C417.175 353.906 385.036 352.14 370.497 367.531Z" fill="#F4B3D7" fill-opacity="0.5"/>
<path d="M364.63 299.942C350.3 314.279 350.3 347.049 364.63 361.642C378.204 346.793 379.964 314.535 364.63 299.942Z" fill="#F4B3D7" fill-opacity="0.5"/>
<path d="M299.056 167.424C313.34 181.807 345.99 181.807 360.529 167.424C345.735 153.799 313.595 152.033 299.056 167.424Z" fill="#F4B3D7" fill-opacity="0.5"/>
<path d="M370.497 167.424C384.781 181.807 417.43 181.807 431.969 167.424C417.175 153.799 385.036 152.033 370.497 167.424Z" fill="#F4B3D7" fill-opacity="0.5"/>
<path d="M364.63 99.8351C350.299 114.172 350.3 146.942 364.63 161.535C378.204 146.686 379.964 114.428 364.63 99.8351Z" fill="#F4B3D7" fill-opacity="0.5"/>
<path d="M364.63 173.207C350.299 187.544 350.3 220.313 364.63 234.906C378.204 220.057 379.964 187.8 364.63 173.207Z" fill="#F4B3D7" fill-opacity="0.5"/>
<path d="M338.932 267.476C353.216 281.86 385.865 281.86 400.405 267.476C385.61 253.852 353.471 252.086 338.932 267.476Z" fill="#F4B3D7" fill-opacity="0.5"/>
<path d="M410.372 267.476C424.656 281.86 457.306 281.86 471.845 267.476C457.05 253.852 424.911 252.086 410.372 267.476Z" fill="#F4B3D7" fill-opacity="0.5"/>
<path d="M404.506 199.888C390.175 214.225 390.175 246.995 404.506 261.588C418.08 246.739 419.84 214.481 404.506 199.888Z" fill="#F4B3D7" fill-opacity="0.5"/>
<path d="M404.506 273.259C390.175 287.596 390.175 320.366 404.506 334.959C418.08 320.11 419.84 287.852 404.506 273.259Z" fill="#F4B3D7" fill-opacity="0.5"/>
<path d="M448.585 367.53C462.869 381.914 495.518 381.914 510.058 367.53C495.263 353.906 463.124 352.14 448.585 367.53Z" fill="#F4B3D7" fill-opacity="0.5"/>
<path d="M520.025 367.53C534.309 381.914 566.959 381.914 581.498 367.53C566.704 353.906 534.564 352.14 520.025 367.53Z" fill="#F4B3D7" fill-opacity="0.5"/>
<path d="M514.159 299.942C499.828 314.279 499.829 347.049 514.159 361.642C527.733 346.793 529.493 314.535 514.159 299.942Z" fill="#F4B3D7" fill-opacity="0.5"/>
<path d="M448.585 167.424C462.869 181.807 495.518 181.807 510.058 167.424C495.263 153.799 463.124 152.033 448.585 167.424Z" fill="#F4B3D7" fill-opacity="0.5"/>
<path d="M520.025 167.424C534.309 181.807 566.959 181.807 581.498 167.424C566.704 153.799 534.564 152.033 520.025 167.424Z" fill="#F4B3D7" fill-opacity="0.5"/>
<path d="M514.159 99.8351C499.828 114.172 499.829 146.942 514.159 161.535C527.733 146.686 529.493 114.428 514.159 99.8351Z" fill="#F4B3D7" fill-opacity="0.5"/>
<path d="M514.159 173.207C499.828 187.544 499.829 220.313 514.159 234.906C527.733 220.057 529.493 187.8 514.159 173.207Z" fill="#F4B3D7" fill-opacity="0.5"/>
<path d="M207.726 67.5886C222.01 81.972 254.66 81.9716 269.199 67.5886C254.405 53.964 222.265 52.1978 207.726 67.5886Z" fill="#F4B3D7" fill-opacity="0.5"/>
<path d="M279.167 67.5886C293.451 81.972 326.1 81.9716 340.639 67.5886C325.845 53.964 293.706 52.1978 279.167 67.5886Z" fill="#F4B3D7" fill-opacity="0.5"/>
<path d="M273.3 9.15545e-05C258.97 14.3369 258.97 47.1069 273.3 61.6998C286.874 46.8509 288.634 14.593 273.3 9.15545e-05Z" fill="#F4B3D7" fill-opacity="0.5"/>
<path d="M273.3 73.3716C258.97 87.7085 258.97 120.478 273.3 135.071C286.874 120.222 288.634 87.9645 273.3 73.3716Z" fill="#F4B3D7" fill-opacity="0.5"/>
<path d="M357.253 67.5885C371.538 81.9719 404.187 81.9716 418.726 67.5885C403.932 53.964 371.793 52.1977 357.253 67.5885Z" fill="#F4B3D7" fill-opacity="0.5"/>
<path d="M428.694 67.5885C442.978 81.9719 475.627 81.9716 490.166 67.5885C475.372 53.964 443.233 52.1977 428.694 67.5885Z" fill="#F4B3D7" fill-opacity="0.5"/>
<path d="M422.827 -3.05158e-05C408.497 14.3368 408.497 47.1068 422.827 61.6996C436.402 46.8508 438.161 14.5928 422.827 -3.05158e-05Z" fill="#F4B3D7" fill-opacity="0.5"/>
<path d="M422.827 73.3715C408.497 87.7084 408.497 120.478 422.827 135.071C436.402 120.222 438.161 87.9644 422.827 73.3715Z" fill="#F4B3D7" fill-opacity="0.5"/>
<path d="M506.782 67.5885C521.066 81.9719 553.716 81.9716 568.255 67.5885C553.461 53.964 521.321 52.1977 506.782 67.5885Z" fill="#F4B3D7" fill-opacity="0.5"/>
<path d="M578.222 67.5885C592.507 81.9719 625.156 81.9716 639.695 67.5885C624.901 53.964 592.762 52.1977 578.222 67.5885Z" fill="#F4B3D7" fill-opacity="0.5"/>
<path d="M572.356 -3.05158e-05C558.025 14.3368 558.026 47.1068 572.356 61.6996C585.93 46.8508 587.69 14.5928 572.356 -3.05158e-05Z" fill="#F4B3D7" fill-opacity="0.5"/>
<path d="M572.356 73.3715C558.025 87.7084 558.026 120.478 572.356 135.071C585.93 120.222 587.69 87.9644 572.356 73.3715Z" fill="#F4B3D7" fill-opacity="0.5"/>
<path d="M488.456 267.476C502.74 281.86 535.389 281.86 549.928 267.476C535.134 253.852 502.995 252.086 488.456 267.476Z" fill="#F4B3D7" fill-opacity="0.5"/>
<path d="M559.896 267.476C574.18 281.86 606.83 281.86 621.369 267.476C606.575 253.852 574.435 252.086 559.896 267.476Z" fill="#F4B3D7" fill-opacity="0.5"/>
<path d="M554.029 199.888C539.699 214.225 539.699 246.995 554.029 261.588C567.604 246.739 569.364 214.481 554.029 199.888Z" fill="#F4B3D7" fill-opacity="0.5"/>
<path d="M554.029 273.259C539.699 287.596 539.699 320.366 554.029 334.959C567.604 320.11 569.364 287.852 554.029 273.259Z" fill="#F4B3D7" fill-opacity="0.5"/>
</svg>
