<svg width="639" height="447" viewBox="0 0 639 447" fill="none" xmlns="http://www.w3.org/2000/svg">
<g opacity="0.8">
<g opacity="0.8">
<path opacity="0.8" d="M396.417 456.522C396.16 448.742 393.181 441.695 388.431 436.251C382.385 442.358 378.753 450.851 379.06 460.125C379.317 467.905 382.296 474.953 387.046 480.397C393.102 474.28 396.724 465.797 396.417 456.522Z" fill="#227C3E"/>
<path opacity="0.8" d="M341.832 445.337C334.054 445.615 327.008 448.604 321.585 453.375C327.71 459.413 336.201 463.016 345.473 462.689C353.252 462.412 360.297 459.423 365.72 454.652C359.595 448.614 351.104 445.011 341.832 445.337Z" fill="#227C3E"/>
<path opacity="0.8" d="M294.094 444.08C286.316 444.338 279.27 447.317 273.828 452.068C279.933 458.116 288.424 461.749 297.696 461.442C305.474 461.184 312.52 458.205 317.963 453.454C311.847 447.406 303.367 443.774 294.094 444.08Z" fill="#227C3E"/>
<path opacity="0.8" d="M329.027 426.63C328.769 418.85 325.791 411.802 321.041 406.359C314.994 412.466 311.363 420.958 311.669 430.233C311.927 438.013 314.905 445.06 319.655 450.504C325.711 444.387 329.333 435.905 329.027 426.63Z" fill="#227C3E"/>
<path opacity="0.8" d="M260.745 455.592C260.488 447.812 257.509 440.764 252.759 435.32C246.713 441.428 243.081 449.92 243.388 459.195C243.645 466.975 246.624 474.022 251.374 479.466C257.42 473.349 261.052 464.867 260.745 455.592Z" fill="#227C3E"/>
</g>
<g opacity="0.8">
<path opacity="0.8" d="M409.222 372.438C401.444 372.715 394.398 375.704 388.976 380.475C395.101 386.513 403.592 390.116 412.864 389.789C420.642 389.512 427.688 386.523 433.111 381.752C426.985 375.714 418.495 372.111 409.222 372.438Z" fill="#227C3E"/>
<path opacity="0.8" d="M378.14 408.269C378.397 416.049 381.376 423.096 386.126 428.54C392.172 422.433 395.804 413.941 395.497 404.666C395.24 396.886 392.261 389.839 387.511 384.395C381.465 390.512 377.843 399.004 378.14 408.269Z" fill="#227C3E"/>
<path opacity="0.8" d="M361.485 371.181C353.707 371.438 346.661 374.417 341.218 379.168C347.324 385.216 355.815 388.849 365.087 388.542C372.865 388.285 379.911 385.305 385.354 380.554C379.238 374.496 370.757 370.874 361.485 371.181Z" fill="#227C3E"/>
<path opacity="0.8" d="M396.417 353.72C396.16 345.94 393.181 338.893 388.431 333.449C382.385 339.556 378.753 348.049 379.06 357.323C379.317 365.103 382.296 372.151 387.046 377.595C393.102 371.477 396.724 362.995 396.417 353.72Z" fill="#227C3E"/>
<path opacity="0.8" d="M341.832 342.535C334.054 342.812 327.008 345.802 321.585 350.573C327.71 356.61 336.201 360.213 345.473 359.887C353.252 359.61 360.297 356.62 365.72 351.849C359.595 345.812 351.104 342.209 341.832 342.535Z" fill="#227C3E"/>
<path opacity="0.8" d="M310.759 378.376C311.016 386.156 313.995 393.204 318.745 398.648C324.791 392.541 328.423 384.048 328.116 374.774C327.859 366.994 324.88 359.946 320.13 354.502C314.074 360.619 310.452 369.102 310.759 378.376Z" fill="#227C3E"/>
<path opacity="0.8" d="M294.094 341.278C286.316 341.536 279.27 344.515 273.828 349.266C279.933 355.314 288.424 358.946 297.696 358.64C305.474 358.382 312.52 355.403 317.963 350.652C311.847 344.604 303.367 340.971 294.094 341.278Z" fill="#227C3E"/>
<path opacity="0.8" d="M329.027 323.828C328.769 316.048 325.791 309 321.041 303.556C314.994 309.664 311.363 318.156 311.669 327.431C311.927 335.211 314.905 342.258 319.655 347.702C325.711 341.585 329.333 333.102 329.027 323.828Z" fill="#227C3E"/>
<path opacity="0.8" d="M273.551 371.497C265.772 371.774 258.727 374.764 253.304 379.535C259.429 385.572 267.92 389.175 277.192 388.849C284.97 388.572 292.016 385.582 297.439 380.811C291.314 374.774 282.823 371.171 273.551 371.497Z" fill="#227C3E"/>
<path opacity="0.8" d="M242.468 407.338C242.725 415.118 245.704 422.166 250.454 427.61C256.5 421.503 260.132 413.01 259.825 403.736C259.568 395.956 256.589 388.908 251.839 383.464C245.793 389.581 242.161 398.064 242.468 407.338Z" fill="#227C3E"/>
<path opacity="0.8" d="M225.813 370.24C218.035 370.498 210.989 373.477 205.546 378.228C211.652 384.276 220.143 387.908 229.415 387.602C237.193 387.344 244.239 384.365 249.682 379.614C243.566 373.566 235.076 369.933 225.813 370.24Z" fill="#227C3E"/>
<path opacity="0.8" d="M260.745 352.79C260.488 345.01 257.509 337.962 252.759 332.518C246.713 338.626 243.081 347.118 243.388 356.393C243.645 364.173 246.624 371.22 251.374 376.664C257.42 370.547 261.052 362.064 260.745 352.79Z" fill="#227C3E"/>
</g>
<g opacity="0.8">
<path opacity="0.8" d="M409.222 272.318C401.444 272.595 394.398 275.584 388.976 280.355C395.101 286.393 403.592 289.996 412.864 289.669C420.642 289.392 427.688 286.403 433.111 281.632C426.985 275.604 418.495 271.991 409.222 272.318Z" fill="#227C3E"/>
<path opacity="0.8" d="M378.14 308.159C378.397 315.939 381.376 322.986 386.126 328.43C392.172 322.323 395.804 313.831 395.497 304.556C395.24 296.776 392.261 289.729 387.511 284.285C381.465 290.402 377.843 298.884 378.14 308.159Z" fill="#227C3E"/>
<path opacity="0.8" d="M361.485 271.061C353.707 271.318 346.661 274.297 341.218 279.049C347.324 285.096 355.815 288.729 365.087 288.422C372.865 288.165 379.911 285.185 385.354 280.434C379.238 274.387 370.757 270.764 361.485 271.061Z" fill="#227C3E"/>
<path opacity="0.8" d="M396.417 253.61C396.16 245.83 393.181 238.783 388.431 233.339C382.385 239.446 378.753 247.939 379.06 257.213C379.317 264.993 382.296 272.041 387.046 277.485C393.102 271.368 396.724 262.885 396.417 253.61Z" fill="#227C3E"/>
<path opacity="0.8" d="M341.832 242.425C334.054 242.703 327.008 245.692 321.585 250.463C327.71 256.501 336.201 260.104 345.473 259.777C353.252 259.5 360.297 256.511 365.72 251.74C359.595 245.702 351.104 242.099 341.832 242.425Z" fill="#227C3E"/>
<path opacity="0.8" d="M310.759 278.267C311.016 286.047 313.995 293.094 318.745 298.538C324.791 292.431 328.423 283.938 328.116 274.664C327.859 266.884 324.88 259.836 320.13 254.392C314.074 260.509 310.452 268.992 310.759 278.267Z" fill="#227C3E"/>
<path opacity="0.8" d="M294.094 241.168C286.316 241.426 279.27 244.405 273.828 249.156C279.933 255.204 288.424 258.836 297.696 258.53C305.474 258.272 312.52 255.293 317.963 250.542C311.847 244.484 303.367 240.862 294.094 241.168Z" fill="#227C3E"/>
<path opacity="0.8" d="M329.027 223.708C328.769 215.928 325.791 208.881 321.041 203.437C314.994 209.544 311.363 218.036 311.669 227.311C311.927 235.091 314.905 242.138 319.655 247.582C325.711 241.475 329.333 232.983 329.027 223.708Z" fill="#227C3E"/>
<path opacity="0.8" d="M273.551 271.387C265.772 271.665 258.727 274.654 253.304 279.425C259.429 285.463 267.92 289.066 277.192 288.739C284.97 288.462 292.016 285.472 297.439 280.702C291.314 274.664 282.823 271.061 273.551 271.387Z" fill="#227C3E"/>
<path opacity="0.8" d="M242.468 307.229C242.725 315.009 245.704 322.056 250.454 327.5C256.5 321.393 260.132 312.9 259.825 303.626C259.568 295.846 256.589 288.798 251.839 283.354C245.793 289.461 242.161 297.954 242.468 307.229Z" fill="#227C3E"/>
<path opacity="0.8" d="M225.813 270.13C218.035 270.388 210.989 273.367 205.546 278.118C211.652 284.166 220.143 287.799 229.415 287.492C237.193 287.234 244.239 284.255 249.682 279.504C243.566 273.446 235.076 269.823 225.813 270.13Z" fill="#227C3E"/>
<path opacity="0.8" d="M260.745 252.67C260.488 244.89 257.509 237.843 252.759 232.399C246.713 238.506 243.081 246.998 243.388 256.273C243.645 264.053 246.624 271.1 251.374 276.544C257.42 270.437 261.052 261.945 260.745 252.67Z" fill="#227C3E"/>
</g>
<g opacity="0.8">
<path opacity="0.8" d="M409.222 169.516C401.444 169.793 394.398 172.782 388.976 177.553C395.101 183.591 403.592 187.194 412.864 186.867C420.642 186.59 427.688 183.601 433.111 178.83C426.985 172.802 418.495 169.189 409.222 169.516Z" fill="#227C3E"/>
<path opacity="0.8" d="M378.14 205.357C378.397 213.137 381.376 220.184 386.126 225.628C392.172 219.521 395.804 211.028 395.497 201.754C395.24 193.974 392.261 186.926 387.511 181.482C381.465 187.6 377.843 196.082 378.14 205.357Z" fill="#227C3E"/>
<path opacity="0.8" d="M361.485 168.259C353.707 168.516 346.661 171.495 341.218 176.246C347.324 182.294 355.815 185.927 365.087 185.62C372.865 185.363 379.911 182.383 385.354 177.632C379.238 171.584 370.757 167.962 361.485 168.259Z" fill="#227C3E"/>
<path opacity="0.8" d="M396.417 150.808C396.16 143.028 393.181 135.981 388.431 130.537C382.385 136.644 378.753 145.136 379.06 154.411C379.317 162.191 382.296 169.238 387.046 174.682C393.102 168.565 396.724 160.083 396.417 150.808Z" fill="#227C3E"/>
<path opacity="0.8" d="M341.832 139.623C334.054 139.9 327.008 142.89 321.585 147.661C327.71 153.698 336.201 157.301 345.473 156.975C353.252 156.698 360.297 153.708 365.72 148.937C359.595 142.9 351.104 139.297 341.832 139.623Z" fill="#227C3E"/>
<path opacity="0.8" d="M310.759 175.464C311.016 183.244 313.995 190.292 318.745 195.736C324.791 189.629 328.423 181.136 328.116 171.862C327.859 164.082 324.88 157.034 320.13 151.59C314.074 157.697 310.452 166.19 310.759 175.464Z" fill="#227C3E"/>
<path opacity="0.8" d="M294.094 138.366C286.316 138.624 279.27 141.603 273.828 146.354C279.933 152.402 288.424 156.034 297.696 155.728C305.474 155.47 312.52 152.491 317.963 147.74C311.847 141.682 303.367 138.059 294.094 138.366Z" fill="#227C3E"/>
<path opacity="0.8" d="M329.027 120.906C328.769 113.126 325.791 106.078 321.041 100.634C314.994 106.742 311.363 115.234 311.669 124.509C311.927 132.289 314.905 139.336 319.655 144.78C325.711 138.673 329.333 130.18 329.027 120.906Z" fill="#227C3E"/>
<path opacity="0.8" d="M273.551 168.585C265.772 168.862 258.727 171.852 253.304 176.623C259.429 182.66 267.92 186.263 277.192 185.937C284.97 185.66 292.016 182.67 297.439 177.899C291.314 171.861 282.823 168.259 273.551 168.585Z" fill="#227C3E"/>
<path opacity="0.8" d="M242.468 204.426C242.725 212.206 245.704 219.254 250.454 224.698C256.5 218.591 260.132 210.098 259.825 200.824C259.568 193.044 256.589 185.996 251.839 180.552C245.793 186.659 242.161 195.152 242.468 204.426Z" fill="#227C3E"/>
<path opacity="0.8" d="M225.813 167.328C218.035 167.586 210.989 170.565 205.546 175.316C211.652 181.364 220.143 184.996 229.415 184.69C237.193 184.432 244.239 181.453 249.682 176.702C243.566 170.644 235.076 167.021 225.813 167.328Z" fill="#227C3E"/>
<path opacity="0.8" d="M260.745 149.868C260.488 142.088 257.509 135.04 252.759 129.596C246.713 135.704 243.081 144.196 243.388 153.471C243.645 161.251 246.624 168.298 251.374 173.742C257.42 167.625 261.052 159.142 260.745 149.868Z" fill="#227C3E"/>
</g>
</g>
<g opacity="0.8">
<path opacity="0.8" d="M409.222 68.8812C401.444 69.1583 394.398 72.1476 388.976 76.9185C395.101 82.9564 403.592 86.5593 412.864 86.2326C420.642 85.9555 427.688 82.9663 433.111 78.1953C426.985 72.1575 418.495 68.5546 409.222 68.8812Z" fill="#227C3E"/>
<path opacity="0.8" d="M378.14 104.722C378.397 112.502 381.376 119.55 386.126 124.994C392.172 118.887 395.804 110.394 395.497 101.119C395.24 93.3395 392.261 86.2921 387.511 80.8481C381.465 86.9651 377.843 95.4478 378.14 104.722Z" fill="#227C3E"/>
<path opacity="0.8" d="M361.485 67.6242C353.707 67.8815 346.661 70.8609 341.218 75.612C347.324 81.6597 355.815 85.2923 365.087 84.9855C372.865 84.7281 379.911 81.7488 385.354 76.9977C379.238 70.9499 370.757 67.3173 361.485 67.6242Z" fill="#227C3E"/>
<path opacity="0.8" d="M396.417 50.1638C396.16 42.3838 393.181 35.3364 388.431 29.8924C382.385 35.9996 378.753 44.4922 379.06 53.7667C379.317 61.5467 382.296 68.5942 387.046 74.0381C393.102 67.931 396.724 59.4384 396.417 50.1638Z" fill="#227C3E"/>
<path opacity="0.8" d="M341.832 38.9789C334.054 39.2561 327.008 42.2453 321.585 47.0162C327.71 53.054 336.201 56.6569 345.473 56.3303C353.252 56.0531 360.297 53.0639 365.72 48.293C359.595 42.2651 351.104 38.6523 341.832 38.9789Z" fill="#227C3E"/>
<path opacity="0.8" d="M310.759 74.8201C311.016 82.6001 313.995 89.6475 318.745 95.0915C324.791 88.9843 328.423 80.4917 328.116 71.2172C327.859 63.4372 324.88 56.3897 320.13 50.9457C314.074 57.0628 310.452 65.5456 310.759 74.8201Z" fill="#227C3E"/>
<path opacity="0.8" d="M294.094 37.7218C286.316 37.9791 279.27 40.9585 273.828 45.7096C279.933 51.7574 288.424 55.39 297.696 55.0832C305.474 54.8258 312.52 51.8465 317.963 47.0954C311.847 41.0476 303.367 37.4248 294.094 37.7218Z" fill="#227C3E"/>
<path opacity="0.8" d="M329.027 20.2714C328.769 12.4915 325.791 5.44398 321.041 0C314.994 6.10715 311.363 14.5998 311.669 23.8743C311.927 31.6543 314.905 38.7017 319.655 44.1457C325.711 38.0286 329.333 29.546 329.027 20.2714Z" fill="#227C3E"/>
<path opacity="0.8" d="M273.551 67.9408C265.772 68.218 258.727 71.2072 253.304 75.9782C259.429 82.0161 267.92 85.619 277.192 85.2923C284.97 85.0152 292.016 82.0259 297.439 77.255C291.314 71.227 282.823 67.6142 273.551 67.9408Z" fill="#227C3E"/>
<path opacity="0.8" d="M242.468 103.782C242.725 111.562 245.704 118.609 250.454 124.053C256.5 117.946 260.132 109.454 259.825 100.179C259.568 92.3992 256.589 85.3517 251.839 79.9077C245.793 86.0248 242.161 94.5075 242.468 103.782Z" fill="#227C3E"/>
<path opacity="0.8" d="M225.813 66.6838C218.035 66.9411 210.989 69.9205 205.546 74.6716C211.652 80.7193 220.143 84.3519 229.415 84.0451C237.193 83.7877 244.239 80.8085 249.682 76.0573C243.566 70.0096 235.076 66.3868 225.813 66.6838Z" fill="#227C3E"/>
<path opacity="0.8" d="M260.745 49.2333C260.488 41.4534 257.509 34.4059 252.759 28.9619C246.713 35.0691 243.081 43.5617 243.388 52.8363C243.645 60.6162 246.624 67.6637 251.374 73.1077C257.42 66.9906 261.052 58.5079 260.745 49.2333Z" fill="#227C3E"/>
</g>
<g opacity="0.8">
<path opacity="0.8" d="M614.769 430.213C606.991 430.49 599.945 433.479 594.522 438.25C600.647 444.288 609.138 447.891 618.41 447.565C626.189 447.287 633.234 444.298 638.657 439.527C632.522 433.489 624.031 429.886 614.769 430.213Z" fill="#227C3E"/>
<path opacity="0.8" d="M583.686 466.054C583.943 473.834 586.922 480.882 591.672 486.326C597.718 480.219 601.35 471.726 601.043 462.451C600.786 454.671 597.807 447.624 593.057 442.18C587.011 448.287 583.379 456.78 583.686 466.054Z" fill="#227C3E"/>
<path opacity="0.8" d="M567.021 428.956C559.243 429.213 552.197 432.193 546.755 436.944C552.86 442.992 561.351 446.624 570.623 446.317C578.402 446.06 585.447 443.081 590.89 438.33C584.774 432.272 576.294 428.649 567.021 428.956Z" fill="#227C3E"/>
<path opacity="0.8" d="M601.964 411.496C601.706 403.716 598.728 396.668 593.978 391.224C587.931 397.331 584.299 405.824 584.606 415.099C584.864 422.879 587.842 429.926 592.592 435.37C598.639 429.253 602.261 420.77 601.964 411.496Z" fill="#227C3E"/>
<path opacity="0.8" d="M547.378 400.311C539.6 400.588 532.554 403.577 527.131 408.348C533.257 414.386 541.747 417.989 551.02 417.662C558.798 417.385 565.844 414.396 571.267 409.625C565.141 403.597 556.641 399.984 547.378 400.311Z" fill="#227C3E"/>
<path opacity="0.8" d="M516.295 436.152C516.553 443.932 519.531 450.979 524.281 456.423C530.328 450.316 533.959 441.824 533.653 432.549C533.395 424.769 530.417 417.722 525.667 412.278C519.62 418.395 515.989 426.877 516.295 436.152Z" fill="#227C3E"/>
<path opacity="0.8" d="M499.631 399.054C491.853 399.311 484.807 402.29 479.364 407.042C485.47 413.089 493.96 416.722 503.233 416.415C511.011 416.158 518.057 413.178 523.499 408.427C517.384 402.38 508.903 398.747 499.631 399.054Z" fill="#227C3E"/>
<path opacity="0.8" d="M534.573 381.603C534.316 373.823 531.337 366.776 526.587 361.332C520.541 367.439 516.909 375.932 517.216 385.206C517.473 392.986 520.452 400.034 525.202 405.478C531.248 399.361 534.88 390.878 534.573 381.603Z" fill="#227C3E"/>
<path opacity="0.8" d="M479.087 429.273C471.309 429.55 464.263 432.539 458.84 437.31C464.966 443.348 473.456 446.951 482.729 446.624C490.507 446.347 497.553 443.358 502.976 438.587C496.85 432.559 488.359 428.946 479.087 429.273Z" fill="#227C3E"/>
<path opacity="0.8" d="M448.014 465.114C448.271 472.894 451.25 479.941 456 485.385C462.046 479.278 465.678 470.786 465.371 461.511C465.114 453.731 462.135 446.684 457.385 441.24C451.329 447.357 447.707 455.839 448.014 465.114Z" fill="#227C3E"/>
<path opacity="0.8" d="M431.349 428.016C423.571 428.273 416.526 431.252 411.083 436.003C417.189 442.051 425.679 445.684 434.952 445.377C442.73 445.12 449.776 442.14 455.218 437.389C449.103 431.341 440.622 427.709 431.349 428.016Z" fill="#227C3E"/>
<path opacity="0.8" d="M466.292 410.565C466.034 402.785 463.056 395.738 458.306 390.294C452.259 396.401 448.628 404.894 448.934 414.168C449.192 421.948 452.17 428.996 456.92 434.44C462.967 428.323 466.589 419.84 466.292 410.565Z" fill="#227C3E"/>
</g>
<g opacity="0.8">
<g opacity="0.8">
<path opacity="0.8" d="M203.686 421.552C195.908 421.829 188.862 424.819 183.439 429.589C189.565 435.627 198.055 439.23 207.328 438.904C215.106 438.626 222.152 435.637 227.575 430.866C221.449 424.838 212.958 421.226 203.686 421.552Z" fill="#227C3E"/>
<path opacity="0.8" d="M172.603 457.393C172.86 465.173 175.839 472.221 180.589 477.665C186.635 471.558 190.267 463.065 189.96 453.791C189.703 446.011 186.724 438.963 181.974 433.519C175.928 439.636 172.296 448.119 172.603 457.393Z" fill="#227C3E"/>
<path opacity="0.8" d="M155.948 420.295C148.17 420.553 141.124 423.532 135.682 428.283C141.787 434.331 150.278 437.963 159.551 437.656C167.329 437.399 174.374 434.42 179.817 429.669C173.702 423.621 165.211 419.998 155.948 420.295Z" fill="#227C3E"/>
<path opacity="0.8" d="M190.881 402.845C190.623 395.065 187.645 388.017 182.895 382.573C176.848 388.68 173.217 397.173 173.523 406.448C173.781 414.228 176.759 421.275 181.509 426.719C187.556 420.602 191.188 412.119 190.881 402.845Z" fill="#227C3E"/>
<path opacity="0.8" d="M136.295 391.66C128.517 391.937 121.471 394.926 116.048 399.697C122.174 405.735 130.665 409.338 139.937 409.011C147.715 408.734 154.761 405.745 160.184 400.974C154.058 394.936 145.568 391.333 136.295 391.66Z" fill="#227C3E"/>
<path opacity="0.8" d="M105.212 427.501C105.47 435.281 108.448 442.328 113.198 447.772C119.245 441.665 122.877 433.173 122.57 423.898C122.312 416.118 119.334 409.071 114.584 403.627C108.537 409.734 104.906 418.226 105.212 427.501Z" fill="#227C3E"/>
<path opacity="0.8" d="M88.5578 390.403C80.7797 390.66 73.7338 393.639 68.2911 398.391C74.3969 404.438 82.8875 408.071 92.1599 407.764C99.938 407.507 106.984 404.527 112.427 399.776C106.311 393.719 97.8203 390.096 88.5578 390.403Z" fill="#227C3E"/>
<path opacity="0.8" d="M123.49 372.942C123.233 365.162 120.254 358.115 115.504 352.671C109.458 358.778 105.826 367.271 106.133 376.545C106.39 384.325 109.369 391.373 114.119 396.817C120.165 390.71 123.797 382.217 123.49 372.942Z" fill="#227C3E"/>
<path opacity="0.8" d="M68.0141 420.622C60.236 420.899 53.1901 423.888 47.7672 428.659C53.8927 434.697 62.3834 438.3 71.6558 437.973C79.4339 437.696 86.4797 434.707 91.9026 429.936C85.7771 423.898 77.2766 420.295 68.0141 420.622Z" fill="#227C3E"/>
<path opacity="0.8" d="M36.9313 456.463C37.1886 464.243 40.1672 471.29 44.9172 476.734C50.9636 470.627 54.5953 462.135 54.2886 452.86C54.0313 445.08 51.0526 438.033 46.3026 432.589C40.2563 438.696 36.6245 447.188 36.9313 456.463Z" fill="#227C3E"/>
<path opacity="0.8" d="M20.2667 419.365C12.4885 419.622 5.44271 422.601 0 427.352C6.10573 433.4 14.5964 437.033 23.8688 436.726C31.6469 436.469 38.6927 433.489 44.1354 428.738C38.0198 422.681 29.5391 419.058 20.2667 419.365Z" fill="#227C3E"/>
<path opacity="0.8" d="M55.2089 401.904C54.9516 394.124 51.9729 387.077 47.2229 381.633C41.1766 387.74 37.5448 396.233 37.8516 405.507C38.1089 413.287 41.0875 420.335 45.8375 425.779C51.8839 419.662 55.5156 411.179 55.2089 401.904Z" fill="#227C3E"/>
</g>
<g opacity="0.8">
<path opacity="0.8" d="M203.686 321.442C195.908 321.719 188.862 324.709 183.439 329.48C189.565 335.518 198.055 339.121 207.328 338.794C215.106 338.517 222.152 335.527 227.575 330.756C221.449 324.719 212.958 321.116 203.686 321.442Z" fill="#227C3E"/>
<path opacity="0.8" d="M172.603 357.284C172.86 365.063 175.839 372.111 180.589 377.555C186.635 371.448 190.267 362.955 189.96 353.681C189.703 345.901 186.724 338.853 181.974 333.409C175.928 339.526 172.296 348.009 172.603 357.284Z" fill="#227C3E"/>
<path opacity="0.8" d="M155.948 320.185C148.17 320.443 141.124 323.422 135.682 328.173C141.787 334.221 150.278 337.853 159.551 337.547C167.329 337.289 174.374 334.31 179.817 329.559C173.702 323.511 165.211 319.878 155.948 320.185Z" fill="#227C3E"/>
<path opacity="0.8" d="M190.881 302.735C190.623 294.955 187.645 287.907 182.895 282.463C176.848 288.571 173.217 297.063 173.523 306.338C173.781 314.118 176.759 321.165 181.509 326.609C187.556 320.492 191.188 312.009 190.881 302.735Z" fill="#227C3E"/>
<path opacity="0.8" d="M136.295 291.55C128.517 291.827 121.471 294.816 116.048 299.587C122.174 305.625 130.665 309.228 139.937 308.901C147.715 308.624 154.761 305.635 160.184 300.864C154.058 294.826 145.568 291.213 136.295 291.55Z" fill="#227C3E"/>
<path opacity="0.8" d="M105.212 327.381C105.47 335.161 108.448 342.209 113.198 347.653C119.245 341.545 122.877 333.053 122.57 323.778C122.312 315.998 119.334 308.951 114.584 303.507C108.537 309.624 104.906 318.107 105.212 327.381Z" fill="#227C3E"/>
<path opacity="0.8" d="M88.5578 290.293C80.7797 290.55 73.7338 293.529 68.2911 298.281C74.3969 304.328 82.8875 307.961 92.1599 307.654C99.938 307.397 106.984 304.418 112.427 299.666C106.311 293.609 97.8203 289.986 88.5578 290.293Z" fill="#227C3E"/>
<path opacity="0.8" d="M123.49 272.833C123.233 265.053 120.254 258.005 115.504 252.561C109.458 258.668 105.826 267.161 106.133 276.436C106.39 284.215 109.369 291.263 114.119 296.707C120.165 290.59 123.797 282.107 123.49 272.833Z" fill="#227C3E"/>
<path opacity="0.8" d="M68.0141 320.502C60.236 320.779 53.1901 323.768 47.7672 328.539C53.8927 334.577 62.3834 338.18 71.6558 337.853C79.4339 337.576 86.4797 334.587 91.9026 329.816C85.7771 323.788 77.2766 320.175 68.0141 320.502Z" fill="#227C3E"/>
<path opacity="0.8" d="M36.9313 356.343C37.1886 364.123 40.1672 371.171 44.9172 376.615C50.9636 370.507 54.5953 362.015 54.2886 352.74C54.0313 344.96 51.0526 337.913 46.3026 332.469C40.2563 338.586 36.6245 347.069 36.9313 356.343Z" fill="#227C3E"/>
<path opacity="0.8" d="M20.2667 319.255C12.4885 319.512 5.44271 322.492 0 327.243C6.10573 333.29 14.5964 336.923 23.8688 336.616C31.6469 336.359 38.6927 333.379 44.1354 328.628C38.0198 322.571 29.5391 318.948 20.2667 319.255Z" fill="#227C3E"/>
<path opacity="0.8" d="M55.2089 301.795C54.9516 294.015 51.9729 286.967 47.2229 281.523C41.1766 287.63 37.5448 296.123 37.8516 305.397C38.1089 313.177 41.0875 320.225 45.8375 325.669C51.8839 319.552 55.5156 311.069 55.2089 301.795Z" fill="#227C3E"/>
</g>
<g opacity="0.8">
<path opacity="0.8" d="M203.686 218.64C195.908 218.917 188.862 221.907 183.439 226.677C189.565 232.715 198.055 236.318 207.328 235.992C215.106 235.714 222.152 232.725 227.575 227.954C221.449 221.916 212.958 218.314 203.686 218.64Z" fill="#227C3E"/>
<path opacity="0.8" d="M172.603 254.481C172.86 262.261 175.839 269.309 180.589 274.753C186.635 268.646 190.267 260.153 189.96 250.878C189.703 243.099 186.724 236.051 181.974 230.607C175.928 236.724 172.296 245.207 172.603 254.481Z" fill="#227C3E"/>
<path opacity="0.8" d="M155.948 217.383C148.17 217.64 141.124 220.62 135.682 225.371C141.787 231.419 150.278 235.051 159.551 234.744C167.329 234.487 174.374 231.508 179.817 226.757C173.702 220.709 165.211 217.076 155.948 217.383Z" fill="#227C3E"/>
<path opacity="0.8" d="M190.881 199.933C190.623 192.153 187.645 185.105 182.895 179.661C176.848 185.768 173.217 194.261 173.523 203.536C173.781 211.316 176.759 218.363 181.509 223.807C187.556 217.69 191.188 209.207 190.881 199.933Z" fill="#227C3E"/>
<path opacity="0.8" d="M136.295 188.738C128.517 189.015 121.471 192.004 116.048 196.775C122.174 202.813 130.665 206.416 139.937 206.089C147.715 205.812 154.761 202.823 160.184 198.052C154.058 192.024 145.568 188.411 136.295 188.738Z" fill="#227C3E"/>
<path opacity="0.8" d="M105.212 224.579C105.47 232.359 108.448 239.406 113.198 244.85C119.245 238.743 122.877 230.251 122.57 220.976C122.312 213.196 119.334 206.149 114.584 200.705C108.537 206.822 104.906 215.305 105.212 224.579Z" fill="#227C3E"/>
<path opacity="0.8" d="M88.5578 187.491C80.7797 187.748 73.7338 190.727 68.2911 195.478C74.3969 201.526 82.8875 205.159 92.1599 204.852C99.938 204.595 106.984 201.615 112.427 196.864C106.311 190.807 97.8203 187.184 88.5578 187.491Z" fill="#227C3E"/>
<path opacity="0.8" d="M123.49 170.03C123.233 162.25 120.254 155.203 115.504 149.759C109.458 155.866 105.826 164.359 106.133 173.633C106.39 181.413 109.369 188.461 114.119 193.905C120.165 187.788 123.797 179.305 123.49 170.03Z" fill="#227C3E"/>
<path opacity="0.8" d="M68.0141 217.7C60.236 217.977 53.1901 220.966 47.7672 225.737C53.8927 231.775 62.3834 235.378 71.6558 235.051C79.4339 234.774 86.4797 231.785 91.9026 227.014C85.7771 220.986 77.2766 217.373 68.0141 217.7Z" fill="#227C3E"/>
<path opacity="0.8" d="M36.9313 253.541C37.1886 261.321 40.1672 268.368 44.9172 273.812C50.9636 267.705 54.5953 259.213 54.2886 249.938C54.0313 242.158 51.0526 235.111 46.3026 229.667C40.2563 235.784 36.6245 244.266 36.9313 253.541Z" fill="#227C3E"/>
<path opacity="0.8" d="M20.2667 216.443C12.4885 216.7 5.44271 219.679 0 224.431C6.10573 230.478 14.5964 234.111 23.8688 233.804C31.6469 233.547 38.6927 230.567 44.1354 225.816C38.0198 219.769 29.5391 216.146 20.2667 216.443Z" fill="#227C3E"/>
<path opacity="0.8" d="M55.2089 198.992C54.9516 191.212 51.9729 184.165 47.2229 178.721C41.1766 184.828 37.5448 193.321 37.8516 202.595C38.1089 210.375 41.0875 217.423 45.8375 222.867C51.8839 216.75 55.5156 208.267 55.2089 198.992Z" fill="#227C3E"/>
</g>
</g>
<g opacity="0.8">
<path opacity="0.8" d="M614.769 325.402C606.991 325.679 599.945 328.668 594.522 333.439C600.647 339.477 609.138 343.08 618.41 342.753C626.189 342.476 633.234 339.487 638.657 334.716C632.532 328.678 624.041 325.065 614.769 325.402Z" fill="#227C3E"/>
<path opacity="0.8" d="M583.686 361.233C583.943 369.013 586.922 376.06 591.672 381.504C597.718 375.397 601.35 366.905 601.043 357.63C600.786 349.85 597.807 342.803 593.057 337.359C587.011 343.476 583.379 351.958 583.686 361.233Z" fill="#227C3E"/>
<path opacity="0.8" d="M567.031 324.145C559.253 324.402 552.207 327.381 546.765 332.132C552.87 338.18 561.361 341.813 570.633 341.506C578.411 341.248 585.457 338.269 590.9 333.518C584.784 327.46 576.294 323.838 567.031 324.145Z" fill="#227C3E"/>
<path opacity="0.8" d="M601.964 306.684C601.706 298.904 598.728 291.857 593.978 286.413C587.931 292.52 584.299 301.013 584.606 310.287C584.864 318.067 587.842 325.115 592.592 330.559C598.639 324.442 602.27 315.959 601.964 306.684Z" fill="#227C3E"/>
<path opacity="0.8" d="M547.378 295.499C539.6 295.776 532.554 298.766 527.131 303.537C533.257 309.574 541.747 313.177 551.02 312.851C558.798 312.574 565.844 309.584 571.267 304.813C565.141 298.776 556.651 295.173 547.378 295.499Z" fill="#227C3E"/>
<path opacity="0.8" d="M516.295 331.34C516.553 339.12 519.531 346.168 524.281 351.612C530.328 345.505 533.959 337.012 533.653 327.738C533.395 319.958 530.417 312.91 525.667 307.466C519.62 313.583 515.989 322.066 516.295 331.34Z" fill="#227C3E"/>
<path opacity="0.8" d="M499.641 294.242C491.863 294.5 484.817 297.479 479.374 302.23C485.48 308.278 493.97 311.91 503.243 311.604C511.021 311.346 518.067 308.367 523.509 303.616C517.394 297.568 508.903 293.935 499.641 294.242Z" fill="#227C3E"/>
<path opacity="0.8" d="M534.573 276.792C534.316 269.012 531.337 261.964 526.587 256.52C520.541 262.627 516.909 271.12 517.216 280.395C517.473 288.175 520.452 295.222 525.202 300.666C531.248 294.549 534.88 286.066 534.573 276.792Z" fill="#227C3E"/>
<path opacity="0.8" d="M479.097 324.461C471.319 324.738 464.273 327.728 458.85 332.499C464.976 338.536 473.466 342.139 482.739 341.813C490.517 341.536 497.562 338.546 502.985 333.775C496.85 327.738 488.359 324.135 479.097 324.461Z" fill="#227C3E"/>
<path opacity="0.8" d="M448.014 360.302C448.271 368.082 451.25 375.13 456 380.574C462.046 374.467 465.678 365.974 465.371 356.7C465.114 348.92 462.135 341.872 457.385 336.428C451.339 342.545 447.707 351.028 448.014 360.302Z" fill="#227C3E"/>
<path opacity="0.8" d="M431.349 323.204C423.571 323.462 416.526 326.441 411.083 331.192C417.189 337.24 425.679 340.872 434.952 340.566C442.73 340.308 449.776 337.329 455.218 332.578C449.103 326.53 440.622 322.897 431.349 323.204Z" fill="#227C3E"/>
<path opacity="0.8" d="M466.292 305.754C466.034 297.974 463.056 290.926 458.306 285.482C452.259 291.59 448.628 300.082 448.934 309.357C449.192 317.137 452.17 324.184 456.92 329.628C462.967 323.511 466.589 315.028 466.292 305.754Z" fill="#227C3E"/>
</g>
</svg>
