<svg width="580" height="379" viewBox="0 0 580 379" fill="none" xmlns="http://www.w3.org/2000/svg">
<path d="M579.695 10.7874C565.411 -3.59593 532.761 -3.59561 518.222 10.7875C533.016 24.412 565.156 26.1783 579.695 10.7874Z" fill="#F4B3D7" fill-opacity="0.5"/>
<path d="M508.255 10.7875C493.971 -3.5959 461.321 -3.59558 446.782 10.7875C461.576 24.412 493.715 26.1783 508.255 10.7875Z" fill="#F4B3D7" fill-opacity="0.5"/>
<path d="M514.121 78.376C528.452 64.0391 528.451 31.2692 514.121 16.6763C500.547 31.5252 498.787 63.7831 514.121 78.376Z" fill="#F4B3D7" fill-opacity="0.5"/>
<path d="M539.821 110.842C525.537 96.4583 492.888 96.4586 478.349 110.842C493.143 124.466 525.282 126.232 539.821 110.842Z" fill="#F4B3D7" fill-opacity="0.5"/>
<path d="M468.381 110.842C454.097 96.4583 421.448 96.4586 406.908 110.842C421.703 124.466 453.842 126.232 468.381 110.842Z" fill="#F4B3D7" fill-opacity="0.5"/>
<path d="M474.248 178.43C488.578 164.093 488.578 131.323 474.248 116.731C460.673 131.579 458.913 163.837 474.248 178.43Z" fill="#F4B3D7" fill-opacity="0.5"/>
<path d="M474.248 105.059C488.578 90.7218 488.578 57.9518 474.248 43.359C460.673 58.2078 458.913 90.4658 474.248 105.059Z" fill="#F4B3D7" fill-opacity="0.5"/>
<path d="M430.166 10.7877C415.882 -3.59572 383.233 -3.5954 368.694 10.7877C383.488 24.4122 415.627 26.1785 430.166 10.7877Z" fill="#F4B3D7" fill-opacity="0.5"/>
<path d="M358.726 10.7877C344.442 -3.59572 311.792 -3.5954 297.253 10.7877C312.047 24.4122 344.187 26.1785 358.726 10.7877Z" fill="#F4B3D7" fill-opacity="0.5"/>
<path d="M364.592 78.3762C378.923 64.0393 378.923 31.2694 364.592 16.6765C351.018 31.5254 349.258 63.7833 364.592 78.3762Z" fill="#F4B3D7" fill-opacity="0.5"/>
<path d="M430.166 210.895C415.882 196.511 383.233 196.511 368.694 210.895C383.488 224.519 415.627 226.285 430.166 210.895Z" fill="#F4B3D7" fill-opacity="0.5"/>
<path d="M358.726 210.894C344.442 196.511 311.792 196.511 297.253 210.894C312.047 224.519 344.187 226.285 358.726 210.894Z" fill="#F4B3D7" fill-opacity="0.5"/>
<path d="M364.592 278.483C378.923 264.146 378.922 231.376 364.592 216.783C351.018 231.632 349.258 263.89 364.592 278.483Z" fill="#F4B3D7" fill-opacity="0.5"/>
<path d="M364.592 205.111C378.923 190.775 378.922 158.005 364.592 143.412C351.018 158.261 349.258 190.519 364.592 205.111Z" fill="#F4B3D7" fill-opacity="0.5"/>
<path d="M390.292 110.842C376.008 96.4583 343.359 96.4586 328.82 110.842C343.614 124.466 375.753 126.232 390.292 110.842Z" fill="#F4B3D7" fill-opacity="0.5"/>
<path d="M318.852 110.842C304.568 96.4583 271.919 96.4586 257.38 110.842C272.174 124.466 304.313 126.232 318.852 110.842Z" fill="#F4B3D7" fill-opacity="0.5"/>
<path d="M324.719 178.43C339.049 164.093 339.049 131.323 324.719 116.731C311.144 131.579 309.385 163.837 324.719 178.43Z" fill="#F4B3D7" fill-opacity="0.5"/>
<path d="M324.719 105.059C339.049 90.7218 339.049 57.9519 324.719 43.359C311.144 58.2079 309.385 90.4658 324.719 105.059Z" fill="#F4B3D7" fill-opacity="0.5"/>
<path d="M280.638 10.7874C266.354 -3.59593 233.705 -3.59561 219.166 10.7875C233.96 24.412 266.099 26.1783 280.638 10.7874Z" fill="#F4B3D7" fill-opacity="0.5"/>
<path d="M209.198 10.7874C194.914 -3.59593 162.265 -3.59561 147.726 10.7875C162.52 24.412 194.659 26.1783 209.198 10.7874Z" fill="#F4B3D7" fill-opacity="0.5"/>
<path d="M215.065 78.376C229.395 64.0391 229.395 31.2692 215.065 16.6763C201.49 31.5252 199.731 63.7831 215.065 78.376Z" fill="#F4B3D7" fill-opacity="0.5"/>
<path d="M280.639 210.894C266.354 196.511 233.705 196.511 219.166 210.894C233.96 224.519 266.099 226.285 280.639 210.894Z" fill="#F4B3D7" fill-opacity="0.5"/>
<path d="M209.198 210.894C194.914 196.511 162.265 196.511 147.726 210.894C162.52 224.519 194.659 226.285 209.198 210.894Z" fill="#F4B3D7" fill-opacity="0.5"/>
<path d="M215.065 278.483C229.395 264.146 229.395 231.376 215.065 216.783C201.49 231.632 199.731 263.89 215.065 278.483Z" fill="#F4B3D7" fill-opacity="0.5"/>
<path d="M215.065 205.111C229.395 190.775 229.395 158.005 215.065 143.412C201.49 158.261 199.731 190.519 215.065 205.111Z" fill="#F4B3D7" fill-opacity="0.5"/>
<path d="M240.763 110.842C226.479 96.4583 193.83 96.4586 179.29 110.842C194.085 124.466 226.224 126.232 240.763 110.842Z" fill="#F4B3D7" fill-opacity="0.5"/>
<path d="M169.323 110.842C155.039 96.4583 122.389 96.4586 107.85 110.842C122.644 124.466 154.784 126.232 169.323 110.842Z" fill="#F4B3D7" fill-opacity="0.5"/>
<path d="M175.19 178.43C189.52 164.093 189.52 131.323 175.19 116.731C161.615 131.579 159.855 163.837 175.19 178.43Z" fill="#F4B3D7" fill-opacity="0.5"/>
<path d="M175.19 105.059C189.52 90.7218 189.52 57.9518 175.19 43.359C161.615 58.2078 159.855 90.4658 175.19 105.059Z" fill="#F4B3D7" fill-opacity="0.5"/>
<path d="M131.11 10.7877C116.826 -3.59569 84.1765 -3.59537 69.6374 10.7877C84.4316 24.4122 116.571 26.1785 131.11 10.7877Z" fill="#F4B3D7" fill-opacity="0.5"/>
<path d="M59.6698 10.7877C45.3857 -3.59569 12.7363 -3.59537 -1.80283 10.7877C12.9914 24.4122 45.1306 26.1785 59.6698 10.7877Z" fill="#F4B3D7" fill-opacity="0.5"/>
<path d="M65.5364 78.3762C79.8669 64.0394 79.8666 31.2694 65.5364 16.6765C51.962 31.5254 50.2023 63.7834 65.5364 78.3762Z" fill="#F4B3D7" fill-opacity="0.5"/>
<path d="M131.11 210.894C116.826 196.511 84.1765 196.511 69.6374 210.894C84.4316 224.519 116.571 226.285 131.11 210.894Z" fill="#F4B3D7" fill-opacity="0.5"/>
<path d="M59.6698 210.894C45.3857 196.511 12.7363 196.511 -1.80283 210.894C12.9914 224.519 45.1306 226.285 59.6698 210.894Z" fill="#F4B3D7" fill-opacity="0.5"/>
<path d="M65.5364 278.483C79.8669 264.146 79.8666 231.376 65.5364 216.783C51.962 231.632 50.2023 263.89 65.5364 278.483Z" fill="#F4B3D7" fill-opacity="0.5"/>
<path d="M65.5364 205.111C79.8669 190.775 79.8666 158.005 65.5364 143.412C51.962 158.261 50.2023 190.519 65.5364 205.111Z" fill="#F4B3D7" fill-opacity="0.5"/>
<path d="M371.969 310.73C357.685 296.346 325.035 296.346 310.496 310.73C325.29 324.354 357.429 326.12 371.969 310.73Z" fill="#F4B3D7" fill-opacity="0.5"/>
<path d="M300.528 310.73C286.244 296.346 253.595 296.347 239.056 310.73C253.85 324.354 285.989 326.12 300.528 310.73Z" fill="#F4B3D7" fill-opacity="0.5"/>
<path d="M306.395 378.318C320.726 363.981 320.725 331.211 306.395 316.618C292.821 331.467 291.061 363.725 306.395 378.318Z" fill="#F4B3D7" fill-opacity="0.5"/>
<path d="M306.395 304.947C320.726 290.61 320.725 257.84 306.395 243.247C292.821 258.096 291.061 290.354 306.395 304.947Z" fill="#F4B3D7" fill-opacity="0.5"/>
<path d="M222.441 310.73C208.157 296.346 175.508 296.347 160.969 310.73C175.763 324.354 207.902 326.12 222.441 310.73Z" fill="#F4B3D7" fill-opacity="0.5"/>
<path d="M151.001 310.73C136.717 296.346 104.068 296.347 89.5285 310.73C104.323 324.354 136.462 326.12 151.001 310.73Z" fill="#F4B3D7" fill-opacity="0.5"/>
<path d="M156.868 378.318C171.198 363.981 171.198 331.211 156.868 316.618C143.293 331.467 141.534 363.725 156.868 378.318Z" fill="#F4B3D7" fill-opacity="0.5"/>
<path d="M156.868 304.947C171.198 290.61 171.198 257.84 156.868 243.247C143.293 258.096 141.534 290.354 156.868 304.947Z" fill="#F4B3D7" fill-opacity="0.5"/>
<path d="M72.9127 310.73C58.6286 296.346 25.9793 296.347 11.4401 310.73C26.2343 324.354 58.3736 326.12 72.9127 310.73Z" fill="#F4B3D7" fill-opacity="0.5"/>
<path d="M1.47253 310.73C-12.8116 296.346 -45.4609 296.347 -60.0001 310.73C-45.2058 324.354 -13.0666 326.12 1.47253 310.73Z" fill="#F4B3D7" fill-opacity="0.5"/>
<path d="M7.33916 378.318C21.6696 363.981 21.6693 331.211 7.33916 316.618C-6.23524 331.467 -7.99501 363.725 7.33916 378.318Z" fill="#F4B3D7" fill-opacity="0.5"/>
<path d="M7.33916 304.947C21.6696 290.61 21.6693 257.84 7.33916 243.247C-6.23524 258.096 -7.99501 290.354 7.33916 304.947Z" fill="#F4B3D7" fill-opacity="0.5"/>
<path d="M91.2389 110.842C76.9548 96.4583 44.3054 96.4586 29.7663 110.842C44.5605 124.466 76.6997 126.232 91.2389 110.842Z" fill="#F4B3D7" fill-opacity="0.5"/>
<path d="M19.7986 110.842C5.51449 96.4583 -27.1349 96.4586 -41.674 110.842C-26.8798 124.466 5.25942 126.232 19.7986 110.842Z" fill="#F4B3D7" fill-opacity="0.5"/>
<path d="M25.6651 178.43C39.9955 164.093 39.9952 131.323 25.6651 116.731C12.0907 131.579 10.3309 163.837 25.6651 178.43Z" fill="#F4B3D7" fill-opacity="0.5"/>
<path d="M25.6651 105.059C39.9955 90.7218 39.9952 57.9519 25.6651 43.359C12.0907 58.2079 10.3309 90.4658 25.6651 105.059Z" fill="#F4B3D7" fill-opacity="0.5"/>
</svg>
