<svg width="588" height="379" viewBox="0 0 588 379" fill="none" xmlns="http://www.w3.org/2000/svg">
<path d="M587.695 10.7875C573.411 -3.59587 540.762 -3.59555 526.223 10.7875C541.017 24.4121 573.156 26.1783 587.695 10.7875Z" fill="#62A4F3" fill-opacity="0.5"/>
<path d="M587.695 10.7875C573.411 -3.59587 540.762 -3.59555 526.223 10.7875C541.017 24.4121 573.156 26.1783 587.695 10.7875Z" fill="#F9AA41"/>
<path d="M516.255 10.7875C501.971 -3.59584 469.321 -3.59552 454.782 10.7875C469.577 24.4121 501.716 26.1783 516.255 10.7875Z" fill="#62A4F3" fill-opacity="0.5"/>
<path d="M516.255 10.7875C501.971 -3.59584 469.321 -3.59552 454.782 10.7875C469.577 24.4121 501.716 26.1783 516.255 10.7875Z" fill="#F9AA41"/>
<path d="M522.121 78.376C536.452 64.0392 536.452 31.2692 522.121 16.6764C508.547 31.5252 506.787 63.7832 522.121 78.376Z" fill="#62A4F3" fill-opacity="0.5"/>
<path d="M522.121 78.376C536.452 64.0392 536.452 31.2692 522.121 16.6764C508.547 31.5252 506.787 63.7832 522.121 78.376Z" fill="#F9AA41"/>
<path d="M547.821 110.842C533.537 96.4583 500.888 96.4586 486.349 110.842C501.143 124.466 533.282 126.233 547.821 110.842Z" fill="#62A4F3" fill-opacity="0.5"/>
<path d="M547.821 110.842C533.537 96.4583 500.888 96.4586 486.349 110.842C501.143 124.466 533.282 126.233 547.821 110.842Z" fill="#F9AA41"/>
<path d="M476.381 110.842C462.097 96.4583 429.447 96.4586 414.908 110.842C429.702 124.466 461.842 126.233 476.381 110.842Z" fill="#62A4F3" fill-opacity="0.5"/>
<path d="M476.381 110.842C462.097 96.4583 429.447 96.4586 414.908 110.842C429.702 124.466 461.842 126.233 476.381 110.842Z" fill="#F9AA41"/>
<path d="M482.247 178.43C496.578 164.093 496.577 131.323 482.247 116.731C468.673 131.579 466.913 163.837 482.247 178.43Z" fill="#62A4F3" fill-opacity="0.5"/>
<path d="M482.247 178.43C496.578 164.093 496.577 131.323 482.247 116.731C468.673 131.579 466.913 163.837 482.247 178.43Z" fill="#F9AA41"/>
<path d="M482.247 105.059C496.578 90.7218 496.577 57.9519 482.247 43.359C468.673 58.2079 466.913 90.4658 482.247 105.059Z" fill="#62A4F3" fill-opacity="0.5"/>
<path d="M482.247 105.059C496.578 90.7218 496.577 57.9519 482.247 43.359C468.673 58.2079 466.913 90.4658 482.247 105.059Z" fill="#F9AA41"/>
<path d="M438.167 10.7877C423.883 -3.59565 391.234 -3.59534 376.694 10.7877C391.489 24.4123 423.628 26.1785 438.167 10.7877Z" fill="#62A4F3" fill-opacity="0.5"/>
<path d="M438.167 10.7877C423.883 -3.59565 391.234 -3.59534 376.694 10.7877C391.489 24.4123 423.628 26.1785 438.167 10.7877Z" fill="#F9AA41"/>
<path d="M366.727 10.7877C352.442 -3.59565 319.793 -3.59534 305.254 10.7877C320.048 24.4123 352.187 26.1785 366.727 10.7877Z" fill="#62A4F3" fill-opacity="0.5"/>
<path d="M366.727 10.7877C352.442 -3.59565 319.793 -3.59534 305.254 10.7877C320.048 24.4123 352.187 26.1785 366.727 10.7877Z" fill="#F9AA41"/>
<path d="M372.593 78.3763C386.924 64.0394 386.923 31.2694 372.593 16.6766C359.019 31.5255 357.259 63.7834 372.593 78.3763Z" fill="#62A4F3" fill-opacity="0.5"/>
<path d="M372.593 78.3763C386.924 64.0394 386.923 31.2694 372.593 16.6766C359.019 31.5255 357.259 63.7834 372.593 78.3763Z" fill="#F9AA41"/>
<path d="M438.167 210.895C423.883 196.511 391.234 196.512 376.694 210.895C391.489 224.519 423.628 226.285 438.167 210.895Z" fill="#62A4F3" fill-opacity="0.5"/>
<path d="M438.167 210.895C423.883 196.511 391.234 196.512 376.694 210.895C391.489 224.519 423.628 226.285 438.167 210.895Z" fill="#F9AA41"/>
<path d="M366.727 210.894C352.442 196.511 319.793 196.511 305.254 210.894C320.048 224.519 352.187 226.285 366.727 210.894Z" fill="#62A4F3" fill-opacity="0.5"/>
<path d="M366.727 210.894C352.442 196.511 319.793 196.511 305.254 210.894C320.048 224.519 352.187 226.285 366.727 210.894Z" fill="#F9AA41"/>
<path d="M372.593 278.483C386.924 264.146 386.923 231.376 372.593 216.783C359.019 231.632 357.259 263.89 372.593 278.483Z" fill="#62A4F3" fill-opacity="0.5"/>
<path d="M372.593 278.483C386.924 264.146 386.923 231.376 372.593 216.783C359.019 231.632 357.259 263.89 372.593 278.483Z" fill="#F9AA41"/>
<path d="M372.593 205.111C386.924 190.775 386.923 158.005 372.593 143.412C359.019 158.261 357.259 190.519 372.593 205.111Z" fill="#62A4F3" fill-opacity="0.5"/>
<path d="M372.593 205.111C386.924 190.775 386.923 158.005 372.593 143.412C359.019 158.261 357.259 190.519 372.593 205.111Z" fill="#F9AA41"/>
<path d="M398.293 110.842C384.009 96.4584 351.36 96.4587 336.82 110.842C351.615 124.466 383.754 126.233 398.293 110.842Z" fill="#62A4F3" fill-opacity="0.5"/>
<path d="M398.293 110.842C384.009 96.4584 351.36 96.4587 336.82 110.842C351.615 124.466 383.754 126.233 398.293 110.842Z" fill="#F9AA41"/>
<path d="M326.853 110.842C312.568 96.4584 279.919 96.4587 265.38 110.842C280.174 124.466 312.313 126.233 326.853 110.842Z" fill="#62A4F3" fill-opacity="0.5"/>
<path d="M326.853 110.842C312.568 96.4584 279.919 96.4587 265.38 110.842C280.174 124.466 312.313 126.233 326.853 110.842Z" fill="#F9AA41"/>
<path d="M332.719 178.43C347.049 164.093 347.049 131.323 332.719 116.731C319.145 131.579 317.385 163.837 332.719 178.43Z" fill="#62A4F3" fill-opacity="0.5"/>
<path d="M332.719 178.43C347.049 164.093 347.049 131.323 332.719 116.731C319.145 131.579 317.385 163.837 332.719 178.43Z" fill="#F9AA41"/>
<path d="M332.719 105.059C347.049 90.7219 347.049 57.9519 332.719 43.359C319.145 58.2079 317.385 90.4658 332.719 105.059Z" fill="#62A4F3" fill-opacity="0.5"/>
<path d="M332.719 105.059C347.049 90.7219 347.049 57.9519 332.719 43.359C319.145 58.2079 317.385 90.4658 332.719 105.059Z" fill="#F9AA41"/>
<path d="M288.639 10.7875C274.355 -3.59587 241.705 -3.59555 227.166 10.7875C241.96 24.4121 274.1 26.1783 288.639 10.7875Z" fill="#62A4F3" fill-opacity="0.5"/>
<path d="M288.639 10.7875C274.355 -3.59587 241.705 -3.59555 227.166 10.7875C241.96 24.4121 274.1 26.1783 288.639 10.7875Z" fill="#F9AA41"/>
<path d="M217.198 10.7875C202.914 -3.59587 170.265 -3.59555 155.726 10.7875C170.52 24.4121 202.659 26.1783 217.198 10.7875Z" fill="#62A4F3" fill-opacity="0.5"/>
<path d="M217.198 10.7875C202.914 -3.59587 170.265 -3.59555 155.726 10.7875C170.52 24.4121 202.659 26.1783 217.198 10.7875Z" fill="#F9AA41"/>
<path d="M223.065 78.376C237.395 64.0392 237.395 31.2692 223.065 16.6764C209.49 31.5252 207.731 63.7832 223.065 78.376Z" fill="#62A4F3" fill-opacity="0.5"/>
<path d="M223.065 78.376C237.395 64.0392 237.395 31.2692 223.065 16.6764C209.49 31.5252 207.731 63.7832 223.065 78.376Z" fill="#F9AA41"/>
<path d="M288.639 210.895C274.355 196.511 241.705 196.512 227.166 210.895C241.96 224.519 274.1 226.285 288.639 210.895Z" fill="#62A4F3" fill-opacity="0.5"/>
<path d="M288.639 210.895C274.355 196.511 241.705 196.512 227.166 210.895C241.96 224.519 274.1 226.285 288.639 210.895Z" fill="#F9AA41"/>
<path d="M217.198 210.895C202.914 196.511 170.265 196.511 155.726 210.895C170.52 224.519 202.659 226.285 217.198 210.895Z" fill="#62A4F3" fill-opacity="0.5"/>
<path d="M217.198 210.895C202.914 196.511 170.265 196.511 155.726 210.895C170.52 224.519 202.659 226.285 217.198 210.895Z" fill="#F9AA41"/>
<path d="M223.065 278.483C237.395 264.146 237.395 231.376 223.065 216.783C209.49 231.632 207.731 263.89 223.065 278.483Z" fill="#62A4F3" fill-opacity="0.5"/>
<path d="M223.065 278.483C237.395 264.146 237.395 231.376 223.065 216.783C209.49 231.632 207.731 263.89 223.065 278.483Z" fill="#F9AA41"/>
<path d="M223.065 205.112C237.395 190.775 237.395 158.005 223.065 143.412C209.49 158.261 207.731 190.519 223.065 205.112Z" fill="#62A4F3" fill-opacity="0.5"/>
<path d="M223.065 205.112C237.395 190.775 237.395 158.005 223.065 143.412C209.49 158.261 207.731 190.519 223.065 205.112Z" fill="#F9AA41"/>
<path d="M248.764 110.842C234.48 96.4583 201.83 96.4586 187.291 110.842C202.085 124.466 234.225 126.233 248.764 110.842Z" fill="#62A4F3" fill-opacity="0.5"/>
<path d="M248.764 110.842C234.48 96.4583 201.83 96.4586 187.291 110.842C202.085 124.466 234.225 126.233 248.764 110.842Z" fill="#F9AA41"/>
<path d="M177.323 110.842C163.039 96.4583 130.39 96.4586 115.851 110.842C130.645 124.466 162.784 126.233 177.323 110.842Z" fill="#62A4F3" fill-opacity="0.5"/>
<path d="M177.323 110.842C163.039 96.4583 130.39 96.4586 115.851 110.842C130.645 124.466 162.784 126.233 177.323 110.842Z" fill="#F9AA41"/>
<path d="M183.19 178.43C197.52 164.093 197.52 131.323 183.19 116.731C169.615 131.579 167.856 163.837 183.19 178.43Z" fill="#62A4F3" fill-opacity="0.5"/>
<path d="M183.19 178.43C197.52 164.093 197.52 131.323 183.19 116.731C169.615 131.579 167.856 163.837 183.19 178.43Z" fill="#F9AA41"/>
<path d="M183.19 105.059C197.52 90.7218 197.52 57.9519 183.19 43.359C169.615 58.2079 167.856 90.4658 183.19 105.059Z" fill="#62A4F3" fill-opacity="0.5"/>
<path d="M183.19 105.059C197.52 90.7218 197.52 57.9519 183.19 43.359C169.615 58.2079 167.856 90.4658 183.19 105.059Z" fill="#F9AA41"/>
<path d="M139.11 10.7878C124.826 -3.59562 92.1769 -3.59531 77.6377 10.7878C92.432 24.4123 124.571 26.1786 139.11 10.7878Z" fill="#62A4F3" fill-opacity="0.5"/>
<path d="M139.11 10.7878C124.826 -3.59562 92.1769 -3.59531 77.6377 10.7878C92.432 24.4123 124.571 26.1786 139.11 10.7878Z" fill="#F9AA41"/>
<path d="M67.6699 10.7878C53.3858 -3.59562 20.7365 -3.59531 6.1973 10.7878C20.9915 24.4123 53.1308 26.1786 67.6699 10.7878Z" fill="#62A4F3" fill-opacity="0.5"/>
<path d="M67.6699 10.7878C53.3858 -3.59562 20.7365 -3.59531 6.1973 10.7878C20.9915 24.4123 53.1308 26.1786 67.6699 10.7878Z" fill="#F9AA41"/>
<path d="M73.5364 78.3763C87.8669 64.0394 87.8666 31.2695 73.5364 16.6766C59.962 31.5255 58.2023 63.7834 73.5364 78.3763Z" fill="#62A4F3" fill-opacity="0.5"/>
<path d="M73.5364 78.3763C87.8669 64.0394 87.8666 31.2695 73.5364 16.6766C59.962 31.5255 58.2023 63.7834 73.5364 78.3763Z" fill="#F9AA41"/>
<path d="M139.11 210.895C124.826 196.511 92.1769 196.511 77.6377 210.895C92.432 224.519 124.571 226.285 139.11 210.895Z" fill="#62A4F3" fill-opacity="0.5"/>
<path d="M139.11 210.895C124.826 196.511 92.1769 196.511 77.6377 210.895C92.432 224.519 124.571 226.285 139.11 210.895Z" fill="#F9AA41"/>
<path d="M67.6699 210.895C53.3858 196.511 20.7365 196.511 6.1973 210.895C20.9915 224.519 53.1308 226.285 67.6699 210.895Z" fill="#62A4F3" fill-opacity="0.5"/>
<path d="M67.6699 210.895C53.3858 196.511 20.7365 196.511 6.1973 210.895C20.9915 224.519 53.1308 226.285 67.6699 210.895Z" fill="#F9AA41"/>
<path d="M73.5364 278.483C87.8669 264.146 87.8666 231.376 73.5364 216.783C59.962 231.632 58.2023 263.89 73.5364 278.483Z" fill="#62A4F3" fill-opacity="0.5"/>
<path d="M73.5364 278.483C87.8669 264.146 87.8666 231.376 73.5364 216.783C59.962 231.632 58.2023 263.89 73.5364 278.483Z" fill="#F9AA41"/>
<path d="M73.5364 205.111C87.8669 190.775 87.8666 158.005 73.5364 143.412C59.962 158.261 58.2023 190.519 73.5364 205.111Z" fill="#62A4F3" fill-opacity="0.5"/>
<path d="M73.5364 205.111C87.8669 190.775 87.8666 158.005 73.5364 143.412C59.962 158.261 58.2023 190.519 73.5364 205.111Z" fill="#F9AA41"/>
<path d="M379.969 310.73C365.685 296.346 333.035 296.347 318.496 310.73C333.29 324.354 365.43 326.12 379.969 310.73Z" fill="#62A4F3" fill-opacity="0.5"/>
<path d="M379.969 310.73C365.685 296.346 333.035 296.347 318.496 310.73C333.29 324.354 365.43 326.12 379.969 310.73Z" fill="#F9AA41"/>
<path d="M308.528 310.73C294.244 296.346 261.595 296.347 247.056 310.73C261.85 324.354 293.989 326.12 308.528 310.73Z" fill="#62A4F3" fill-opacity="0.5"/>
<path d="M308.528 310.73C294.244 296.346 261.595 296.347 247.056 310.73C261.85 324.354 293.989 326.12 308.528 310.73Z" fill="#F9AA41"/>
<path d="M314.395 378.318C328.725 363.981 328.725 331.211 314.395 316.618C300.82 331.467 299.061 363.725 314.395 378.318Z" fill="#62A4F3" fill-opacity="0.5"/>
<path d="M314.395 378.318C328.725 363.981 328.725 331.211 314.395 316.618C300.82 331.467 299.061 363.725 314.395 378.318Z" fill="#F9AA41"/>
<path d="M314.395 304.947C328.725 290.61 328.725 257.84 314.395 243.247C300.82 258.096 299.061 290.354 314.395 304.947Z" fill="#62A4F3" fill-opacity="0.5"/>
<path d="M314.395 304.947C328.725 290.61 328.725 257.84 314.395 243.247C300.82 258.096 299.061 290.354 314.395 304.947Z" fill="#F9AA41"/>
<path d="M230.441 310.73C216.157 296.346 183.508 296.347 168.969 310.73C183.763 324.354 215.902 326.12 230.441 310.73Z" fill="#62A4F3" fill-opacity="0.5"/>
<path d="M230.441 310.73C216.157 296.346 183.508 296.347 168.969 310.73C183.763 324.354 215.902 326.12 230.441 310.73Z" fill="#F9AA41"/>
<path d="M159.001 310.73C144.717 296.346 112.068 296.347 97.5284 310.73C112.323 324.354 144.462 326.121 159.001 310.73Z" fill="#62A4F3" fill-opacity="0.5"/>
<path d="M159.001 310.73C144.717 296.346 112.068 296.347 97.5284 310.73C112.323 324.354 144.462 326.121 159.001 310.73Z" fill="#F9AA41"/>
<path d="M164.867 378.318C179.198 363.981 179.198 331.211 164.867 316.619C151.293 331.467 149.533 363.725 164.867 378.318Z" fill="#62A4F3" fill-opacity="0.5"/>
<path d="M164.867 378.318C179.198 363.981 179.198 331.211 164.867 316.619C151.293 331.467 149.533 363.725 164.867 378.318Z" fill="#F9AA41"/>
<path d="M164.867 304.947C179.198 290.61 179.198 257.84 164.867 243.247C151.293 258.096 149.533 290.354 164.867 304.947Z" fill="#62A4F3" fill-opacity="0.5"/>
<path d="M164.867 304.947C179.198 290.61 179.198 257.84 164.867 243.247C151.293 258.096 149.533 290.354 164.867 304.947Z" fill="#F9AA41"/>
<path d="M80.9131 310.73C66.629 296.346 33.9796 296.347 19.4405 310.73C34.2347 324.354 66.3739 326.12 80.9131 310.73Z" fill="#62A4F3" fill-opacity="0.5"/>
<path d="M80.9131 310.73C66.629 296.346 33.9796 296.347 19.4405 310.73C34.2347 324.354 66.3739 326.12 80.9131 310.73Z" fill="#F9AA41"/>
<path d="M9.47266 310.73C-4.81144 296.346 -37.4608 296.347 -52 310.73C-37.2057 324.354 -5.06651 326.12 9.47266 310.73Z" fill="#62A4F3" fill-opacity="0.5"/>
<path d="M9.47266 310.73C-4.81144 296.346 -37.4608 296.347 -52 310.73C-37.2057 324.354 -5.06651 326.12 9.47266 310.73Z" fill="#F9AA41"/>
<path d="M15.3392 378.318C29.6696 363.981 29.6693 331.211 15.3392 316.619C1.76476 331.467 0.00498962 363.725 15.3392 378.318Z" fill="#62A4F3" fill-opacity="0.5"/>
<path d="M15.3392 378.318C29.6696 363.981 29.6693 331.211 15.3392 316.619C1.76476 331.467 0.00498962 363.725 15.3392 378.318Z" fill="#F9AA41"/>
<path d="M15.3392 304.947C29.6696 290.61 29.6693 257.84 15.3392 243.247C1.76476 258.096 0.00498962 290.354 15.3392 304.947Z" fill="#62A4F3" fill-opacity="0.5"/>
<path d="M15.3392 304.947C29.6696 290.61 29.6693 257.84 15.3392 243.247C1.76476 258.096 0.00498962 290.354 15.3392 304.947Z" fill="#F9AA41"/>
<path d="M99.2393 110.842C84.9552 96.4584 52.3058 96.4587 37.7666 110.842C52.5609 124.466 84.7001 126.233 99.2393 110.842Z" fill="#62A4F3" fill-opacity="0.5"/>
<path d="M99.2393 110.842C84.9552 96.4584 52.3058 96.4587 37.7666 110.842C52.5609 124.466 84.7001 126.233 99.2393 110.842Z" fill="#F9AA41"/>
<path d="M27.7988 110.842C13.5147 96.4584 -19.1346 96.4587 -33.6738 110.842C-18.8796 124.466 13.2597 126.233 27.7988 110.842Z" fill="#62A4F3" fill-opacity="0.5"/>
<path d="M27.7988 110.842C13.5147 96.4584 -19.1346 96.4587 -33.6738 110.842C-18.8796 124.466 13.2597 126.233 27.7988 110.842Z" fill="#F9AA41"/>
<path d="M33.6653 178.43C47.9958 164.093 47.9955 131.323 33.6653 116.731C20.0909 131.579 18.3312 163.837 33.6653 178.43Z" fill="#62A4F3" fill-opacity="0.5"/>
<path d="M33.6653 178.43C47.9958 164.093 47.9955 131.323 33.6653 116.731C20.0909 131.579 18.3312 163.837 33.6653 178.43Z" fill="#F9AA41"/>
<path d="M33.6653 105.059C47.9958 90.7219 47.9955 57.9519 33.6653 43.3591C20.0909 58.208 18.3312 90.4659 33.6653 105.059Z" fill="#62A4F3" fill-opacity="0.5"/>
<path d="M33.6653 105.059C47.9958 90.7219 47.9955 57.9519 33.6653 43.3591C20.0909 58.208 18.3312 90.4659 33.6653 105.059Z" fill="#F9AA41"/>
</svg>
