<svg width="567" height="752" viewBox="0 0 567 752" fill="none" xmlns="http://www.w3.org/2000/svg">
<path d="M-4.71534e-07 367.531C14.2841 381.914 46.9335 381.914 61.4726 367.531C46.6784 353.906 14.5392 352.14 -4.71534e-07 367.531Z" fill="#EED555"/>
<path d="M71.4404 367.531C85.7245 381.914 118.374 381.914 132.913 367.531C118.119 353.906 85.9796 352.14 71.4404 367.531Z" fill="#EED555"/>
<path d="M65.5734 299.942C51.243 314.279 51.2433 347.049 65.5734 361.642C79.1478 346.793 80.9076 314.535 65.5734 299.942Z" fill="#EED555"/>
<path d="M39.8735 267.476C54.1576 281.86 86.807 281.86 101.346 267.476C86.5519 253.852 54.4127 252.086 39.8735 267.476Z" fill="#EED555"/>
<path d="M111.314 267.476C125.598 281.86 158.247 281.86 172.787 267.476C157.992 253.852 125.853 252.086 111.314 267.476Z" fill="#EED555"/>
<path d="M105.447 199.888C91.117 214.225 91.1173 246.995 105.447 261.588C119.022 246.739 120.782 214.481 105.447 199.888Z" fill="#EED555"/>
<path d="M105.447 273.26C91.117 287.596 91.1173 320.366 105.447 334.959C119.022 320.11 120.782 287.852 105.447 273.26Z" fill="#EED555"/>
<path d="M149.529 367.53C163.813 381.914 196.462 381.914 211.001 367.53C196.207 353.906 164.068 352.14 149.529 367.53Z" fill="#EED555"/>
<path d="M220.969 367.53C235.253 381.914 267.903 381.914 282.442 367.53C267.648 353.906 235.508 352.14 220.969 367.53Z" fill="#EED555"/>
<path d="M215.103 299.942C200.772 314.279 200.773 347.049 215.103 361.642C228.677 346.793 230.437 314.535 215.103 299.942Z" fill="#EED555"/>
<path d="M149.529 167.424C163.813 181.807 196.462 181.807 211.001 167.424C196.207 153.799 164.068 152.033 149.529 167.424Z" fill="#EED555"/>
<path d="M220.969 167.424C235.253 181.807 267.903 181.807 282.442 167.424C267.648 153.799 235.508 152.033 220.969 167.424Z" fill="#EED555"/>
<path d="M215.103 99.8352C200.772 114.172 200.773 146.942 215.103 161.535C228.677 146.686 230.437 114.428 215.103 99.8352Z" fill="#EED555"/>
<path d="M215.103 173.207C200.772 187.544 200.773 220.314 215.103 234.906C228.677 220.058 230.437 187.8 215.103 173.207Z" fill="#EED555"/>
<path d="M189.402 267.476C203.686 281.86 236.336 281.859 250.875 267.476C236.081 253.852 203.942 252.086 189.402 267.476Z" fill="#EED555"/>
<path d="M260.843 267.476C275.127 281.86 307.776 281.86 322.315 267.476C307.521 253.852 275.382 252.086 260.843 267.476Z" fill="#EED555"/>
<path d="M254.976 199.888C240.645 214.225 240.646 246.995 254.976 261.588C268.55 246.739 270.31 214.481 254.976 199.888Z" fill="#EED555"/>
<path d="M254.976 273.259C240.645 287.596 240.646 320.366 254.976 334.959C268.55 320.11 270.31 287.852 254.976 273.259Z" fill="#EED555"/>
<path d="M299.056 367.531C313.34 381.914 345.99 381.914 360.529 367.531C345.735 353.906 313.595 352.14 299.056 367.531Z" fill="#EED555"/>
<path d="M370.497 367.531C384.781 381.914 417.43 381.914 431.969 367.531C417.175 353.906 385.036 352.14 370.497 367.531Z" fill="#EED555"/>
<path d="M364.63 299.942C350.299 314.279 350.299 347.049 364.63 361.642C378.204 346.793 379.964 314.535 364.63 299.942Z" fill="#EED555"/>
<path d="M299.056 167.424C313.34 181.807 345.99 181.807 360.529 167.424C345.735 153.799 313.595 152.033 299.056 167.424Z" fill="#EED555"/>
<path d="M370.497 167.424C384.781 181.807 417.43 181.807 431.969 167.424C417.175 153.799 385.036 152.033 370.497 167.424Z" fill="#EED555"/>
<path d="M364.63 99.8351C350.3 114.172 350.3 146.942 364.63 161.535C378.204 146.686 379.964 114.428 364.63 99.8351Z" fill="#EED555"/>
<path d="M364.63 173.207C350.3 187.544 350.3 220.313 364.63 234.906C378.204 220.057 379.964 187.8 364.63 173.207Z" fill="#EED555"/>
<path d="M338.932 267.476C353.216 281.86 385.865 281.86 400.404 267.476C385.61 253.852 353.471 252.086 338.932 267.476Z" fill="#EED555"/>
<path d="M410.372 267.476C424.656 281.86 457.305 281.86 471.844 267.476C457.05 253.852 424.911 252.086 410.372 267.476Z" fill="#EED555"/>
<path d="M404.505 199.888C390.175 214.225 390.175 246.995 404.505 261.588C418.079 246.739 419.839 214.481 404.505 199.888Z" fill="#EED555"/>
<path d="M404.505 273.259C390.175 287.596 390.175 320.366 404.505 334.959C418.079 320.11 419.839 287.852 404.505 273.259Z" fill="#EED555"/>
<path d="M448.585 367.53C462.869 381.914 495.518 381.914 510.058 367.53C495.263 353.906 463.124 352.14 448.585 367.53Z" fill="#EED555"/>
<path d="M520.025 367.53C534.309 381.914 566.958 381.914 581.498 367.53C566.703 353.906 534.564 352.14 520.025 367.53Z" fill="#EED555"/>
<path d="M514.158 299.942C499.828 314.279 499.828 347.049 514.158 361.642C527.733 346.793 529.493 314.535 514.158 299.942Z" fill="#EED555"/>
<path d="M448.585 167.424C462.869 181.807 495.518 181.807 510.058 167.424C495.263 153.799 463.124 152.033 448.585 167.424Z" fill="#EED555"/>
<path d="M520.025 167.424C534.309 181.807 566.958 181.807 581.498 167.424C566.703 153.799 534.564 152.033 520.025 167.424Z" fill="#EED555"/>
<path d="M514.158 99.8351C499.828 114.172 499.828 146.942 514.158 161.535C527.733 146.686 529.493 114.428 514.158 99.8351Z" fill="#EED555"/>
<path d="M514.158 173.207C499.828 187.544 499.828 220.313 514.158 234.906C527.733 220.057 529.493 187.8 514.158 173.207Z" fill="#EED555"/>
<path d="M207.726 67.5886C222.01 81.972 254.66 81.9716 269.199 67.5886C254.404 53.964 222.265 52.1978 207.726 67.5886Z" fill="#EED555"/>
<path d="M279.166 67.5886C293.45 81.972 326.099 81.9716 340.639 67.5886C325.844 53.964 293.705 52.1978 279.166 67.5886Z" fill="#EED555"/>
<path d="M273.3 9.15545e-05C258.969 14.3369 258.969 47.1069 273.3 61.6998C286.874 46.8509 288.634 14.593 273.3 9.15545e-05Z" fill="#EED555"/>
<path d="M273.3 73.3716C258.969 87.7085 258.969 120.478 273.3 135.071C286.874 120.222 288.634 87.9645 273.3 73.3716Z" fill="#EED555"/>
<path d="M357.253 67.5885C371.538 81.9719 404.187 81.9716 418.726 67.5885C403.932 53.964 371.793 52.1977 357.253 67.5885Z" fill="#EED555"/>
<path d="M428.694 67.5885C442.978 81.9719 475.627 81.9716 490.166 67.5885C475.372 53.964 443.233 52.1977 428.694 67.5885Z" fill="#EED555"/>
<path d="M422.827 -3.05158e-05C408.497 14.3368 408.497 47.1068 422.827 61.6996C436.402 46.8508 438.162 14.5928 422.827 -3.05158e-05Z" fill="#EED555"/>
<path d="M422.827 73.3715C408.497 87.7084 408.497 120.478 422.827 135.071C436.402 120.222 438.162 87.9644 422.827 73.3715Z" fill="#EED555"/>
<path d="M506.782 67.5885C521.066 81.9719 553.716 81.9716 568.255 67.5885C553.461 53.964 521.321 52.1977 506.782 67.5885Z" fill="#EED555"/>
<path d="M572.356 -3.05158e-05C558.025 14.3368 558.026 47.1068 572.356 61.6996C585.93 46.8508 587.69 14.5928 572.356 -3.05158e-05Z" fill="#EED555"/>
<path d="M572.356 73.3715C558.025 87.7084 558.026 120.478 572.356 135.071C585.93 120.222 587.69 87.9644 572.356 73.3715Z" fill="#EED555"/>
<path d="M488.456 267.476C502.74 281.86 535.39 281.86 549.929 267.476C535.134 253.852 502.995 252.086 488.456 267.476Z" fill="#EED555"/>
<path d="M559.896 267.476C574.181 281.86 606.83 281.86 621.369 267.476C606.575 253.852 574.436 252.086 559.896 267.476Z" fill="#EED555"/>
<path d="M554.03 199.888C539.7 214.225 539.7 246.995 554.03 261.588C567.604 246.739 569.364 214.481 554.03 199.888Z" fill="#EED555"/>
<path d="M554.03 273.259C539.7 287.596 539.7 320.366 554.03 334.959C567.604 320.11 569.364 287.852 554.03 273.259Z" fill="#EED555"/>
</svg>
