<svg width="777" height="947" viewBox="0 0 777 947" fill="none" xmlns="http://www.w3.org/2000/svg">
<path d="M197.334 855.563C216.613 874.905 260.681 874.905 280.304 855.563C260.336 837.241 216.958 834.866 197.334 855.563Z" fill="#62A4F3" fill-opacity="0.3"/>
<path d="M293.758 855.563C313.037 874.905 357.105 874.905 376.728 855.563C356.76 837.241 313.382 834.866 293.758 855.563Z" fill="#62A4F3" fill-opacity="0.3"/>
<path d="M285.839 764.674C266.497 783.953 266.498 828.02 285.839 847.644C304.161 827.676 306.536 784.297 285.839 764.674Z" fill="#62A4F3" fill-opacity="0.3"/>
<path d="M285.839 863.34C266.497 882.619 266.498 926.686 285.839 946.31C304.161 926.342 306.536 882.963 285.839 863.34Z" fill="#62A4F3" fill-opacity="0.3"/>
<path d="M96.4219 709.804C115.701 729.146 159.769 729.146 179.392 709.804C159.424 691.483 116.046 689.107 96.4219 709.804Z" fill="#62A4F3" fill-opacity="0.3"/>
<path d="M192.846 709.804C212.125 729.146 256.192 729.146 275.816 709.804C255.848 691.483 212.469 689.107 192.846 709.804Z" fill="#62A4F3" fill-opacity="0.3"/>
<path d="M184.927 618.915C165.585 638.194 165.586 682.261 184.927 701.885C203.249 681.917 205.624 638.538 184.927 618.915Z" fill="#62A4F3" fill-opacity="0.3"/>
<path d="M184.927 717.581C165.585 736.86 165.586 780.928 184.927 800.551C203.249 780.583 205.624 737.205 184.927 717.581Z" fill="#62A4F3" fill-opacity="0.3"/>
<path d="M96.4219 418.284C115.701 437.626 159.769 437.626 179.392 418.284C159.424 399.963 116.046 397.588 96.4219 418.284Z" fill="#62A4F3" fill-opacity="0.3"/>
<path d="M192.846 418.284C212.125 437.626 256.192 437.626 275.816 418.284C255.848 399.963 212.469 397.588 192.846 418.284Z" fill="#62A4F3" fill-opacity="0.3"/>
<path d="M184.927 327.395C165.585 346.674 165.586 390.742 184.927 410.365C203.249 390.397 205.624 347.019 184.927 327.395Z" fill="#62A4F3" fill-opacity="0.3"/>
<path d="M184.927 426.061C165.585 445.34 165.586 489.408 184.927 509.031C203.249 489.063 205.624 445.685 184.927 426.061Z" fill="#62A4F3" fill-opacity="0.3"/>
<path d="M-6.34094e-07 283.739C19.2794 303.081 63.3467 303.08 82.9704 283.739C63.0024 265.417 19.6237 263.042 -6.34094e-07 283.739Z" fill="#62A4F3" fill-opacity="0.3"/>
<path d="M96.4238 283.739C115.703 303.081 159.771 303.08 179.394 283.739C159.426 265.417 116.048 263.042 96.4238 283.739Z" fill="#62A4F3" fill-opacity="0.3"/>
<path d="M88.5054 192.849C69.1634 212.129 69.1638 256.196 88.5054 275.82C106.827 255.852 109.202 212.473 88.5054 192.849Z" fill="#62A4F3" fill-opacity="0.3"/>
<path d="M88.5054 291.515C69.1634 310.795 69.1638 354.862 88.5054 374.486C106.827 354.518 109.202 311.139 88.5054 291.515Z" fill="#62A4F3" fill-opacity="0.3"/>
<path d="M53.8184 149.191C73.0978 168.533 117.165 168.532 136.789 149.191C116.821 130.869 73.4421 128.494 53.8184 149.191Z" fill="#62A4F3" fill-opacity="0.3"/>
<path d="M150.242 149.191C169.522 168.533 213.589 168.532 233.213 149.191C213.245 130.869 169.866 128.494 150.242 149.191Z" fill="#62A4F3" fill-opacity="0.3"/>
<path d="M142.324 58.3015C122.982 77.5809 122.982 121.648 142.324 141.272C160.645 121.304 163.02 77.9252 142.324 58.3015Z" fill="#62A4F3" fill-opacity="0.3"/>
<path d="M142.324 156.968C122.982 176.247 122.982 220.314 142.324 239.938C160.645 219.97 163.02 176.591 142.324 156.968Z" fill="#62A4F3" fill-opacity="0.3"/>
<path d="M152.485 566.286C171.765 585.628 215.832 585.628 235.456 566.286C215.488 547.965 172.109 545.59 152.485 566.286Z" fill="#62A4F3" fill-opacity="0.3"/>
<path d="M248.909 566.286C268.189 585.628 312.256 585.628 331.88 566.286C311.912 547.965 268.533 545.59 248.909 566.286Z" fill="#62A4F3" fill-opacity="0.3"/>
<path d="M240.991 475.397C221.649 494.676 221.649 538.744 240.991 558.367C259.312 538.399 261.687 495.021 240.991 475.397Z" fill="#62A4F3" fill-opacity="0.3"/>
<path d="M240.991 574.063C221.649 593.342 221.649 637.41 240.991 657.033C259.312 637.065 261.687 593.687 240.991 574.063Z" fill="#62A4F3" fill-opacity="0.3"/>
<path d="M399.156 846.591C418.436 865.933 462.503 865.933 482.127 846.591C462.159 828.269 418.78 825.894 399.156 846.591Z" fill="#62A4F3" fill-opacity="0.3"/>
<path d="M495.58 846.591C514.86 865.933 558.927 865.933 578.55 846.591C558.582 828.269 515.204 825.894 495.58 846.591Z" fill="#62A4F3" fill-opacity="0.3"/>
<path d="M487.662 755.702C468.32 774.981 468.32 819.048 487.662 838.672C505.983 818.704 508.358 775.325 487.662 755.702Z" fill="#62A4F3" fill-opacity="0.3"/>
<path d="M487.662 854.368C468.32 873.647 468.32 917.714 487.662 937.338C505.983 917.37 508.358 873.991 487.662 854.368Z" fill="#62A4F3" fill-opacity="0.3"/>
<path d="M597 846.591C616.279 865.933 660.347 865.933 679.97 846.591C660.002 828.269 616.624 825.894 597 846.591Z" fill="#62A4F3" fill-opacity="0.3"/>
<path d="M693.424 846.591C712.703 865.933 756.771 865.933 776.394 846.591C756.426 828.269 713.048 825.894 693.424 846.591Z" fill="#62A4F3" fill-opacity="0.3"/>
<path d="M685.505 755.702C666.163 774.981 666.164 819.048 685.505 838.672C703.827 818.704 706.202 775.325 685.505 755.702Z" fill="#62A4F3" fill-opacity="0.3"/>
<path d="M685.505 854.368C666.163 873.647 666.164 917.714 685.505 937.338C703.827 917.37 706.202 873.991 685.505 854.368Z" fill="#62A4F3" fill-opacity="0.3"/>
<path d="M298.243 709.804C317.523 729.146 361.59 729.146 381.214 709.804C361.246 691.483 317.867 689.107 298.243 709.804Z" fill="#62A4F3" fill-opacity="0.3"/>
<path d="M394.667 709.804C413.946 729.146 458.014 729.146 477.637 709.804C457.669 691.483 414.291 689.107 394.667 709.804Z" fill="#62A4F3" fill-opacity="0.3"/>
<path d="M386.749 618.915C367.407 638.194 367.407 682.261 386.749 701.885C405.07 681.917 407.445 638.538 386.749 618.915Z" fill="#62A4F3" fill-opacity="0.3"/>
<path d="M386.749 717.581C367.407 736.86 367.407 780.928 386.749 800.551C405.07 780.583 407.445 737.205 386.749 717.581Z" fill="#62A4F3" fill-opacity="0.3"/>
<path d="M298.243 418.284C317.523 437.626 361.59 437.626 381.214 418.284C361.246 399.963 317.867 397.588 298.243 418.284Z" fill="#62A4F3" fill-opacity="0.3"/>
<path d="M394.667 418.284C413.946 437.626 458.014 437.626 477.637 418.284C457.669 399.963 414.291 397.588 394.667 418.284Z" fill="#62A4F3" fill-opacity="0.3"/>
<path d="M386.749 327.395C367.407 346.674 367.407 390.742 386.749 410.365C405.07 390.397 407.445 347.019 386.749 327.395Z" fill="#62A4F3" fill-opacity="0.3"/>
<path d="M386.749 426.061C367.407 445.34 367.407 489.408 386.749 509.031C405.07 489.063 407.445 445.685 386.749 426.061Z" fill="#62A4F3" fill-opacity="0.3"/>
<path d="M201.82 283.739C221.1 303.081 265.167 303.08 284.791 283.739C264.823 265.417 221.444 263.042 201.82 283.739Z" fill="#62A4F3" fill-opacity="0.3"/>
<path d="M298.244 283.739C317.524 303.081 361.591 303.08 381.215 283.739C361.247 265.417 317.868 263.042 298.244 283.739Z" fill="#62A4F3" fill-opacity="0.3"/>
<path d="M290.326 192.849C270.984 212.129 270.984 256.196 290.326 275.82C308.647 255.852 311.022 212.473 290.326 192.849Z" fill="#62A4F3" fill-opacity="0.3"/>
<path d="M290.326 291.515C270.984 310.795 270.984 354.862 290.326 374.486C308.647 354.518 311.022 311.139 290.326 291.515Z" fill="#62A4F3" fill-opacity="0.3"/>
<path d="M255.639 149.191C274.918 168.533 318.985 168.532 338.609 149.191C318.641 130.869 275.262 128.494 255.639 149.191Z" fill="#62A4F3" fill-opacity="0.3"/>
<path d="M352.062 149.191C371.342 168.533 415.409 168.532 435.033 149.191C415.065 130.869 371.686 128.494 352.062 149.191Z" fill="#62A4F3" fill-opacity="0.3"/>
<path d="M344.144 58.3015C324.802 77.5809 324.803 121.648 344.144 141.272C362.466 121.304 364.841 77.9252 344.144 58.3015Z" fill="#62A4F3" fill-opacity="0.3"/>
<path d="M344.144 156.968C324.802 176.247 324.803 220.314 344.144 239.938C362.466 219.97 364.841 176.591 344.144 156.968Z" fill="#62A4F3" fill-opacity="0.3"/>
<path d="M354.307 566.286C373.586 585.628 417.653 585.628 437.277 566.286C417.309 547.965 373.93 545.59 354.307 566.286Z" fill="#62A4F3" fill-opacity="0.3"/>
<path d="M450.73 566.286C470.01 585.628 514.077 585.628 533.701 566.286C513.733 547.965 470.354 545.59 450.73 566.286Z" fill="#62A4F3" fill-opacity="0.3"/>
<path d="M442.812 475.397C423.47 494.676 423.47 538.744 442.812 558.367C461.134 538.399 463.509 495.021 442.812 475.397Z" fill="#62A4F3" fill-opacity="0.3"/>
<path d="M442.812 574.063C423.47 593.342 423.47 637.41 442.812 657.033C461.134 637.065 463.509 593.687 442.812 574.063Z" fill="#62A4F3" fill-opacity="0.3"/>
<path d="M500.063 709.804C519.343 729.146 563.41 729.146 583.034 709.804C563.066 691.483 519.687 689.107 500.063 709.804Z" fill="#62A4F3" fill-opacity="0.3"/>
<path d="M596.487 709.804C615.767 729.146 659.834 729.146 679.458 709.804C659.49 691.483 616.111 689.107 596.487 709.804Z" fill="#62A4F3" fill-opacity="0.3"/>
<path d="M588.569 618.915C569.227 638.194 569.227 682.261 588.569 701.885C606.89 681.917 609.266 638.538 588.569 618.915Z" fill="#62A4F3" fill-opacity="0.3"/>
<path d="M588.569 717.581C569.227 736.86 569.227 780.928 588.569 800.551C606.89 780.583 609.266 737.205 588.569 717.581Z" fill="#62A4F3" fill-opacity="0.3"/>
<path d="M500.063 418.284C519.343 437.626 563.41 437.626 583.034 418.284C563.066 399.963 519.687 397.588 500.063 418.284Z" fill="#62A4F3" fill-opacity="0.3"/>
<path d="M596.487 418.284C615.767 437.626 659.834 437.626 679.458 418.284C659.49 399.963 616.111 397.588 596.487 418.284Z" fill="#62A4F3" fill-opacity="0.3"/>
<path d="M588.569 327.395C569.227 346.674 569.227 390.742 588.569 410.365C606.89 390.397 609.266 347.019 588.569 327.395Z" fill="#62A4F3" fill-opacity="0.3"/>
<path d="M588.569 426.061C569.227 445.34 569.227 489.408 588.569 509.031C606.89 489.063 609.266 445.685 588.569 426.061Z" fill="#62A4F3" fill-opacity="0.3"/>
<path d="M403.64 283.739C422.919 303.081 466.986 303.08 486.61 283.739C466.642 265.417 423.263 263.042 403.64 283.739Z" fill="#62A4F3" fill-opacity="0.3"/>
<path d="M500.063 283.739C519.343 303.081 563.41 303.08 583.034 283.739C563.066 265.417 519.687 263.042 500.063 283.739Z" fill="#62A4F3" fill-opacity="0.3"/>
<path d="M492.145 192.849C472.803 212.129 472.803 256.196 492.145 275.82C510.467 255.852 512.842 212.473 492.145 192.849Z" fill="#62A4F3" fill-opacity="0.3"/>
<path d="M492.145 291.515C472.803 310.795 472.803 354.862 492.145 374.486C510.467 354.518 512.842 311.139 492.145 291.515Z" fill="#62A4F3" fill-opacity="0.3"/>
<path d="M403.64 14.6455C422.919 33.9875 466.986 33.987 486.61 14.6455C466.642 -3.67608 423.263 -6.05126 403.64 14.6455Z" fill="#62A4F3" fill-opacity="0.3"/>
<path d="M500.063 14.6455C519.343 33.9875 563.41 33.987 583.034 14.6455C563.066 -3.67608 519.687 -6.05126 500.063 14.6455Z" fill="#62A4F3" fill-opacity="0.3"/>
<path d="M492.145 22.4221C472.803 41.7015 472.803 85.7688 492.145 105.393C510.467 85.4245 512.842 42.0458 492.145 22.4221Z" fill="#62A4F3" fill-opacity="0.3"/>
<path d="M457.461 149.191C476.74 168.533 520.808 168.532 540.431 149.191C520.463 130.869 477.085 128.494 457.461 149.191Z" fill="#62A4F3" fill-opacity="0.3"/>
<path d="M553.885 149.191C573.164 168.533 617.231 168.532 636.855 149.191C616.887 130.869 573.508 128.494 553.885 149.191Z" fill="#62A4F3" fill-opacity="0.3"/>
<path d="M545.966 58.3015C526.624 77.5809 526.625 121.648 545.966 141.272C564.288 121.304 566.663 77.9252 545.966 58.3015Z" fill="#62A4F3" fill-opacity="0.3"/>
<path d="M545.966 156.968C526.624 176.247 526.625 220.314 545.966 239.938C564.288 219.97 566.663 176.591 545.966 156.968Z" fill="#62A4F3" fill-opacity="0.3"/>
<path d="M556.125 566.286C575.404 585.628 619.472 585.628 639.095 566.286C619.127 547.965 575.749 545.59 556.125 566.286Z" fill="#62A4F3" fill-opacity="0.3"/>
<path d="M652.549 566.286C671.828 585.628 715.896 585.628 735.519 566.286C715.551 547.965 672.173 545.59 652.549 566.286Z" fill="#62A4F3" fill-opacity="0.3"/>
<path d="M644.63 475.397C625.288 494.676 625.289 538.744 644.63 558.367C662.952 538.399 665.327 495.021 644.63 475.397Z" fill="#62A4F3" fill-opacity="0.3"/>
<path d="M644.63 574.063C625.288 593.342 625.289 637.41 644.63 657.033C662.952 637.065 665.327 593.687 644.63 574.063Z" fill="#62A4F3" fill-opacity="0.3"/>
<path d="M701.885 709.804C721.164 729.146 765.231 729.146 784.855 709.804C764.887 691.483 721.508 689.107 701.885 709.804Z" fill="#62A4F3" fill-opacity="0.3"/>
<path d="M790.39 618.915C771.048 638.194 771.049 682.261 790.39 701.885C808.712 681.917 811.087 638.538 790.39 618.915Z" fill="#62A4F3" fill-opacity="0.3"/>
<path d="M790.39 717.581C771.048 736.86 771.049 780.928 790.39 800.551C808.712 780.583 811.087 737.205 790.39 717.581Z" fill="#62A4F3" fill-opacity="0.3"/>
<path d="M701.885 418.284C721.164 437.626 765.231 437.626 784.855 418.284C764.887 399.963 721.508 397.588 701.885 418.284Z" fill="#62A4F3" fill-opacity="0.3"/>
<path d="M790.39 327.395C771.048 346.674 771.049 390.742 790.39 410.365C808.712 390.397 811.087 347.019 790.39 327.395Z" fill="#62A4F3" fill-opacity="0.3"/>
<path d="M790.39 426.061C771.048 445.34 771.049 489.408 790.39 509.031C808.712 489.063 811.087 445.685 790.39 426.061Z" fill="#62A4F3" fill-opacity="0.3"/>
<path d="M605.461 283.739C624.74 303.081 668.808 303.08 688.431 283.739C668.463 265.417 625.085 263.042 605.461 283.739Z" fill="#62A4F3" fill-opacity="0.3"/>
<path d="M701.885 283.739C721.164 303.081 765.231 303.08 784.855 283.739C764.887 265.417 721.508 263.042 701.885 283.739Z" fill="#62A4F3" fill-opacity="0.3"/>
<path d="M693.966 192.849C674.624 212.129 674.625 256.196 693.966 275.82C712.288 255.852 714.663 212.473 693.966 192.849Z" fill="#62A4F3" fill-opacity="0.3"/>
<path d="M693.966 291.515C674.624 310.795 674.625 354.862 693.966 374.486C712.288 354.518 714.663 311.139 693.966 291.515Z" fill="#62A4F3" fill-opacity="0.3"/>
<path d="M605.461 14.6455C624.74 33.9875 668.808 33.987 688.431 14.6455C668.463 -3.67608 625.085 -6.05126 605.461 14.6455Z" fill="#62A4F3" fill-opacity="0.3"/>
<path d="M701.885 14.6455C721.164 33.9875 765.231 33.987 784.855 14.6455C764.887 -3.67608 721.508 -6.05126 701.885 14.6455Z" fill="#62A4F3" fill-opacity="0.3"/>
<path d="M693.966 22.4221C674.624 41.7015 674.625 85.7688 693.966 105.393C712.288 85.4245 714.663 42.0458 693.966 22.4221Z" fill="#62A4F3" fill-opacity="0.3"/>
<path d="M659.275 149.191C678.555 168.533 722.622 168.532 742.246 149.191C722.278 130.869 678.899 128.494 659.275 149.191Z" fill="#62A4F3" fill-opacity="0.3"/>
<path d="M755.699 149.191C774.979 168.533 819.046 168.532 838.67 149.191C818.702 130.869 775.323 128.494 755.699 149.191Z" fill="#62A4F3" fill-opacity="0.3"/>
<path d="M747.781 58.3015C728.439 77.5809 728.439 121.648 747.781 141.272C766.102 121.304 768.478 77.9252 747.781 58.3015Z" fill="#62A4F3" fill-opacity="0.3"/>
<path d="M747.781 156.968C728.439 176.247 728.439 220.314 747.781 239.938C766.102 219.97 768.478 176.591 747.781 156.968Z" fill="#62A4F3" fill-opacity="0.3"/>
<path d="M757.943 566.286C777.223 585.628 821.29 585.628 840.914 566.286C820.946 547.965 777.567 545.59 757.943 566.286Z" fill="#62A4F3" fill-opacity="0.3"/>
</svg>
