<svg width="593" height="379" viewBox="0 0 593 379" fill="none" xmlns="http://www.w3.org/2000/svg">
<path d="M592.695 10.7875C578.411 -3.5959 545.761 -3.59558 531.222 10.7875C546.016 24.412 578.156 26.1783 592.695 10.7875Z" fill="#EED555"/>
<path d="M521.254 10.7875C506.97 -3.59587 474.321 -3.59555 459.782 10.7875C474.576 24.4121 506.715 26.1783 521.254 10.7875Z" fill="#EED555"/>
<path d="M527.121 78.376C541.452 64.0392 541.452 31.2692 527.121 16.6763C513.547 31.5252 511.787 63.7831 527.121 78.376Z" fill="#EED555"/>
<path d="M552.821 110.842C538.537 96.4583 505.888 96.4586 491.349 110.842C506.143 124.466 538.282 126.232 552.821 110.842Z" fill="#EED555"/>
<path d="M481.381 110.842C467.097 96.4583 434.447 96.4586 419.908 110.842C434.702 124.466 466.842 126.232 481.381 110.842Z" fill="#EED555"/>
<path d="M487.247 178.43C501.578 164.093 501.577 131.323 487.247 116.731C473.673 131.579 471.913 163.837 487.247 178.43Z" fill="#EED555"/>
<path d="M487.247 105.059C501.578 90.7218 501.577 57.9519 487.247 43.359C473.673 58.2079 471.913 90.4658 487.247 105.059Z" fill="#EED555"/>
<path d="M443.166 10.7877C428.882 -3.59569 396.233 -3.59537 381.693 10.7877C396.488 24.4122 428.627 26.1785 443.166 10.7877Z" fill="#EED555"/>
<path d="M371.726 10.7877C357.442 -3.59569 324.792 -3.59537 310.253 10.7877C325.047 24.4122 357.187 26.1785 371.726 10.7877Z" fill="#EED555"/>
<path d="M377.592 78.3762C391.923 64.0394 391.922 31.2694 377.592 16.6765C364.018 31.5254 362.258 63.7834 377.592 78.3762Z" fill="#EED555"/>
<path d="M443.166 210.895C428.882 196.511 396.233 196.511 381.694 210.895C396.488 224.519 428.627 226.285 443.166 210.895Z" fill="#EED555"/>
<path d="M371.726 210.894C357.442 196.511 324.792 196.511 310.253 210.894C325.047 224.519 357.187 226.285 371.726 210.894Z" fill="#EED555"/>
<path d="M377.593 278.483C391.923 264.146 391.923 231.376 377.593 216.783C364.018 231.632 362.258 263.89 377.593 278.483Z" fill="#EED555"/>
<path d="M377.593 205.111C391.923 190.775 391.923 158.005 377.593 143.412C364.018 158.261 362.258 190.519 377.593 205.111Z" fill="#EED555"/>
<path d="M403.292 110.842C389.008 96.4583 356.359 96.4586 341.82 110.842C356.614 124.466 388.753 126.233 403.292 110.842Z" fill="#EED555"/>
<path d="M331.852 110.842C317.568 96.4583 284.919 96.4586 270.38 110.842C285.174 124.466 317.313 126.233 331.852 110.842Z" fill="#EED555"/>
<path d="M337.719 178.43C352.049 164.093 352.049 131.323 337.719 116.731C324.144 131.579 322.385 163.837 337.719 178.43Z" fill="#EED555"/>
<path d="M337.719 105.059C352.049 90.7218 352.049 57.9519 337.719 43.359C324.144 58.2079 322.385 90.4658 337.719 105.059Z" fill="#EED555"/>
<path d="M293.638 10.7875C279.354 -3.5959 246.705 -3.59558 232.166 10.7875C246.96 24.412 279.099 26.1783 293.638 10.7875Z" fill="#EED555"/>
<path d="M222.198 10.7875C207.914 -3.5959 175.265 -3.59558 160.726 10.7875C175.52 24.412 207.659 26.1783 222.198 10.7875Z" fill="#EED555"/>
<path d="M228.065 78.376C242.395 64.0392 242.395 31.2692 228.065 16.6763C214.49 31.5252 212.731 63.7831 228.065 78.376Z" fill="#EED555"/>
<path d="M293.639 210.895C279.355 196.511 246.705 196.511 232.166 210.895C246.96 224.519 279.1 226.285 293.639 210.895Z" fill="#EED555"/>
<path d="M222.198 210.894C207.914 196.511 175.265 196.511 160.726 210.894C175.52 224.519 207.659 226.285 222.198 210.894Z" fill="#EED555"/>
<path d="M228.065 278.483C242.395 264.146 242.395 231.376 228.065 216.783C214.491 231.632 212.731 263.89 228.065 278.483Z" fill="#EED555"/>
<path d="M228.065 205.111C242.395 190.775 242.395 158.005 228.065 143.412C214.491 158.261 212.731 190.519 228.065 205.111Z" fill="#EED555"/>
<path d="M253.763 110.842C239.479 96.4583 206.829 96.4586 192.29 110.842C207.085 124.466 239.224 126.233 253.763 110.842Z" fill="#EED555"/>
<path d="M182.323 110.842C168.039 96.4583 135.389 96.4586 120.85 110.842C135.644 124.466 167.784 126.232 182.323 110.842Z" fill="#EED555"/>
<path d="M188.189 178.43C202.52 164.093 202.519 131.323 188.189 116.731C174.615 131.579 172.855 163.837 188.189 178.43Z" fill="#EED555"/>
<path d="M188.189 105.059C202.52 90.7218 202.519 57.9519 188.189 43.359C174.615 58.2079 172.855 90.4658 188.189 105.059Z" fill="#EED555"/>
<path d="M144.11 10.7877C129.826 -3.59565 97.1764 -3.59534 82.6372 10.7877C97.4315 24.4123 129.571 26.1785 144.11 10.7877Z" fill="#EED555"/>
<path d="M72.6697 10.7877C58.3856 -3.59565 25.7362 -3.59534 11.1971 10.7877C25.9913 24.4123 58.1305 26.1785 72.6697 10.7877Z" fill="#EED555"/>
<path d="M78.5362 78.3763C92.8666 64.0394 92.8663 31.2694 78.5362 16.6766C64.9618 31.5255 63.202 63.7834 78.5362 78.3763Z" fill="#EED555"/>
<path d="M144.11 210.895C129.826 196.511 97.1764 196.511 82.6372 210.895C97.4315 224.519 129.571 226.285 144.11 210.895Z" fill="#EED555"/>
<path d="M72.6697 210.895C58.3856 196.511 25.7362 196.511 11.1971 210.895C25.9913 224.519 58.1305 226.285 72.6697 210.895Z" fill="#EED555"/>
<path d="M78.5362 278.483C92.8666 264.146 92.8663 231.376 78.5362 216.783C64.9618 231.632 63.202 263.89 78.5362 278.483Z" fill="#EED555"/>
<path d="M78.5362 205.111C92.8666 190.775 92.8663 158.005 78.5362 143.412C64.9618 158.261 63.202 190.519 78.5362 205.111Z" fill="#EED555"/>
<path d="M384.969 310.73C370.684 296.346 338.035 296.347 323.496 310.73C338.29 324.354 370.429 326.12 384.969 310.73Z" fill="#EED555"/>
<path d="M313.528 310.73C299.244 296.346 266.595 296.347 252.056 310.73C266.85 324.354 298.989 326.12 313.528 310.73Z" fill="#EED555"/>
<path d="M319.395 378.318C333.725 363.981 333.725 331.211 319.395 316.618C305.82 331.467 304.061 363.725 319.395 378.318Z" fill="#EED555"/>
<path d="M319.395 304.947C333.725 290.61 333.725 257.84 319.395 243.247C305.82 258.096 304.061 290.354 319.395 304.947Z" fill="#EED555"/>
<path d="M235.441 310.73C221.157 296.346 188.508 296.347 173.969 310.73C188.763 324.354 220.902 326.12 235.441 310.73Z" fill="#EED555"/>
<path d="M164.001 310.73C149.717 296.346 117.068 296.347 102.529 310.73C117.323 324.354 149.462 326.12 164.001 310.73Z" fill="#EED555"/>
<path d="M169.868 378.318C184.198 363.981 184.198 331.211 169.868 316.619C156.293 331.467 154.534 363.725 169.868 378.318Z" fill="#EED555"/>
<path d="M169.868 304.947C184.198 290.61 184.198 257.84 169.868 243.247C156.293 258.096 154.534 290.354 169.868 304.947Z" fill="#EED555"/>
<path d="M85.9126 310.73C71.6285 296.346 38.9791 296.347 24.44 310.73C39.2342 324.354 71.3734 326.12 85.9126 310.73Z" fill="#EED555"/>
<path d="M14.4724 310.73C0.188316 296.346 -32.461 296.347 -47.0002 310.73C-32.206 324.354 -0.0667551 326.12 14.4724 310.73Z" fill="#EED555"/>
<path d="M20.3389 378.318C34.6694 363.981 34.6691 331.211 20.3389 316.619C6.76451 331.467 5.00475 363.725 20.3389 378.318Z" fill="#EED555"/>
<path d="M20.3389 304.947C34.6694 290.61 34.6691 257.84 20.3389 243.247C6.76451 258.096 5.00475 290.354 20.3389 304.947Z" fill="#EED555"/>
<path d="M104.239 110.842C89.9549 96.4583 57.3056 96.4586 42.7664 110.842C57.5606 124.466 89.6998 126.233 104.239 110.842Z" fill="#EED555"/>
<path d="M32.7986 110.842C18.5145 96.4583 -14.1349 96.4586 -28.674 110.842C-13.8798 124.466 18.2594 126.233 32.7986 110.842Z" fill="#EED555"/>
<path d="M38.6653 178.43C52.9958 164.093 52.9955 131.323 38.6653 116.731C25.0909 131.579 23.3312 163.837 38.6653 178.43Z" fill="#EED555"/>
<path d="M38.6653 105.059C52.9958 90.7219 52.9955 57.9519 38.6653 43.359C25.0909 58.2079 23.3312 90.4658 38.6653 105.059Z" fill="#EED555"/>
</svg>
