<svg width="952" height="370" viewBox="0 0 952 370" fill="none" xmlns="http://www.w3.org/2000/svg">
<path d="M402.898 297.54H407.303L421.797 316.094V297.54H426.473V324.444H422.489L407.527 305.305V324.444H402.889V297.54H402.898Z" fill="white"/>
<path d="M442.332 297.326H446.746L458.678 324.444H453.638L450.889 317.95H438.05L435.244 324.444H430.363L442.332 297.326ZM449.149 313.738L444.474 302.976L439.798 313.738H449.149Z" fill="white"/>
<path d="M469.217 301.9H460.614V297.54H482.617V301.919H474.014V324.444H469.207V301.9H469.217Z" fill="white"/>
<path d="M496.485 297.326H500.899L512.859 324.444H507.818L505.069 317.95H492.221L489.415 324.444H484.534L496.485 297.326ZM503.302 313.738L498.626 302.976L493.951 313.738H503.302Z" fill="white"/>
<path d="M516.712 297.54H521.387V320.176H535.648V324.444H516.665L516.712 297.54Z" fill="white"/>
<path d="M551.956 293.754H553.658V329.342H551.956V293.754Z" fill="white"/>
<path d="M571.911 297.54H584.068C587.185 297.54 589.544 298.334 591.146 299.924C591.739 300.506 592.205 301.202 592.517 301.97C592.829 302.737 592.98 303.559 592.961 304.386V304.461C592.971 305.197 592.861 305.93 592.633 306.631C592.435 307.219 592.151 307.776 591.792 308.283C591.445 308.755 591.032 309.177 590.567 309.535C590.115 309.886 589.633 310.196 589.127 310.463C589.881 310.725 590.61 311.055 591.305 311.446C591.935 311.8 592.505 312.248 592.998 312.773C593.488 313.31 593.861 313.942 594.092 314.629C594.36 315.408 594.489 316.227 594.475 317.05V317.022C594.501 318.128 594.254 319.224 593.755 320.214C593.277 321.135 592.581 321.928 591.726 322.524C590.763 323.176 589.689 323.651 588.556 323.925C587.217 324.256 585.841 324.418 584.46 324.407H571.93L571.911 297.54ZM583.133 308.877C584.444 308.94 585.746 308.617 586.873 307.949C587.334 307.65 587.706 307.234 587.951 306.745C588.196 306.256 588.305 305.711 588.266 305.166V305.091C588.288 304.605 588.189 304.121 587.977 303.683C587.765 303.244 587.446 302.864 587.051 302.577C586.003 301.9 584.764 301.575 583.516 301.649H576.68V308.802H583.17L583.133 308.877ZM584.526 320.251C585.865 320.32 587.195 319.997 588.35 319.323C588.808 319.021 589.178 318.605 589.423 318.117C589.667 317.628 589.778 317.084 589.744 316.54V316.466C589.765 315.941 589.65 315.419 589.409 314.951C589.168 314.483 588.81 314.085 588.369 313.794C587.096 313.081 585.638 312.758 584.18 312.866H576.699V320.288H584.573L584.526 320.251Z" fill="white"/>
<path d="M599.104 297.54H611.186C612.728 297.515 614.263 297.757 615.721 298.254C616.948 298.673 618.07 299.346 619.013 300.23C619.733 300.97 620.298 301.843 620.678 302.8C621.073 303.831 621.27 304.926 621.257 306.029V306.103C621.274 307.116 621.109 308.124 620.771 309.081C620.165 310.791 618.969 312.233 617.395 313.154C616.581 313.635 615.703 314 614.786 314.239L622.108 324.444H616.497L609.811 315.065H603.827V324.444H599.151V297.54H599.104ZM610.821 310.881C612.281 310.956 613.722 310.527 614.898 309.665C615.394 309.271 615.79 308.767 616.053 308.193C616.316 307.62 616.44 306.992 616.413 306.363V306.288C616.453 305.655 616.34 305.022 616.083 304.441C615.826 303.86 615.433 303.348 614.936 302.948C613.716 302.117 612.251 301.716 610.775 301.807H603.817V310.881H610.821Z" fill="white"/>
<path d="M635.938 297.326H640.352L652.284 324.444H647.244L644.495 317.95H631.674L628.869 324.444H623.988L635.938 297.326ZM642.755 313.738L638.08 302.976L633.404 313.738H642.755Z" fill="white"/>
<path d="M665.694 324.806C663.645 324.814 661.611 324.456 659.69 323.748C657.728 323.01 655.925 321.908 654.379 320.501L657.25 317.115C658.45 318.165 659.794 319.039 661.243 319.713C662.682 320.344 664.242 320.66 665.815 320.64C667.053 320.701 668.279 320.377 669.322 319.713C669.729 319.444 670.061 319.078 670.288 318.648C670.516 318.218 670.63 317.739 670.622 317.254V317.18C670.63 316.737 670.544 316.298 670.369 315.89C670.154 315.464 669.832 315.1 669.434 314.833C668.859 314.436 668.229 314.124 667.564 313.905C666.553 313.564 665.523 313.282 664.478 313.061C663.168 312.767 661.878 312.388 660.616 311.929C659.608 311.558 658.663 311.039 657.811 310.389C657.058 309.803 656.458 309.045 656.062 308.181C655.637 307.184 655.432 306.108 655.464 305.026V304.962C655.45 303.891 655.675 302.832 656.123 301.858C656.571 300.884 657.23 300.021 658.054 299.33C658.913 298.62 659.9 298.079 660.962 297.734C662.169 297.34 663.432 297.145 664.703 297.159C666.529 297.132 668.346 297.424 670.07 298.022C671.689 298.618 673.201 299.467 674.549 300.536L671.997 304.108C670.864 303.266 669.625 302.574 668.312 302.048C667.14 301.582 665.89 301.339 664.628 301.334C663.468 301.267 662.32 301.594 661.374 302.262C661.013 302.521 660.72 302.861 660.518 303.255C660.317 303.648 660.212 304.084 660.214 304.525V304.6C660.207 305.068 660.299 305.533 660.485 305.963C660.706 306.408 661.05 306.782 661.477 307.04C662.092 307.437 662.759 307.749 663.459 307.967C664.301 308.246 665.329 308.543 666.666 308.895C667.937 309.213 669.186 309.61 670.407 310.083C671.405 310.457 672.331 310.996 673.147 311.678C673.849 312.281 674.411 313.028 674.793 313.868C675.183 314.786 675.375 315.775 675.354 316.772V316.846C675.374 318.013 675.131 319.17 674.643 320.232C674.184 321.215 673.506 322.081 672.66 322.765C671.761 323.487 670.724 324.023 669.612 324.342C668.336 324.688 667.016 324.845 665.694 324.806Z" fill="white"/>
<path d="M680.45 297.54H685.126V324.444H680.45V297.54Z" fill="white"/>
<path d="M691.681 297.54H696.356V320.176H710.617V324.444H691.634L691.681 297.54Z" fill="white"/>
<path d="M726.935 293.754H728.637V329.342H726.935V293.754Z" fill="white"/>
<path d="M745.291 320.733L754.642 312.866C755.577 312.096 756.363 311.4 757.008 310.779C757.583 310.232 758.109 309.636 758.579 308.997C758.95 308.493 759.243 307.936 759.448 307.346C759.631 306.789 759.722 306.206 759.72 305.62C759.753 305.045 759.657 304.469 759.438 303.935C759.22 303.401 758.885 302.921 758.457 302.531C757.592 301.795 756.482 301.405 755.343 301.436C754.173 301.416 753.026 301.767 752.071 302.438C750.929 303.302 749.918 304.324 749.069 305.472L745.702 302.856C746.308 302.011 746.967 301.205 747.675 300.444C748.963 299.051 750.624 298.05 752.463 297.558C753.519 297.285 754.607 297.154 755.699 297.169C756.929 297.156 758.153 297.35 759.318 297.744C760.353 298.097 761.307 298.652 762.123 299.377C762.921 300.079 763.559 300.942 763.993 301.909C764.442 302.946 764.665 304.065 764.648 305.194V305.268C764.661 306.24 764.516 307.208 764.218 308.134C763.918 309.023 763.48 309.859 762.918 310.612C762.266 311.485 761.527 312.29 760.711 313.014C759.819 313.818 758.781 314.709 757.597 315.686L751.986 320.325H764.882V324.444H745.244V320.733H745.291Z" fill="white"/>
<path d="M780.348 324.889C778.671 324.912 777.012 324.543 775.504 323.813C774.058 323.104 772.783 322.094 771.764 320.854C770.705 319.545 769.896 318.054 769.379 316.456C768.811 314.712 768.53 312.889 768.547 311.057V310.982C768.532 309.143 768.82 307.313 769.398 305.565C769.919 303.959 770.734 302.462 771.801 301.148C772.822 299.905 774.097 298.89 775.542 298.17C777.052 297.427 778.719 297.052 780.404 297.076C782.082 297.053 783.741 297.422 785.248 298.152C786.697 298.857 787.973 299.867 788.989 301.111C790.041 302.425 790.849 303.914 791.373 305.509C791.952 307.251 792.239 309.074 792.224 310.908V310.982C792.239 312.822 791.951 314.652 791.373 316.4C790.852 318.006 790.037 319.503 788.97 320.817C787.949 322.06 786.674 323.075 785.23 323.795C783.712 324.537 782.04 324.912 780.348 324.889ZM780.432 320.622C781.419 320.631 782.39 320.371 783.238 319.87C784.095 319.353 784.829 318.656 785.388 317.829C786.011 316.899 786.475 315.874 786.763 314.795C787.093 313.586 787.256 312.338 787.249 311.085V311.01C787.255 309.756 787.085 308.507 786.744 307.299C786.444 306.216 785.974 305.186 785.351 304.247C784.784 303.404 784.037 302.694 783.163 302.169C782.315 301.666 781.346 301.4 780.358 301.399C779.371 301.39 778.4 301.65 777.552 302.15C776.693 302.665 775.958 303.362 775.401 304.191C774.774 305.118 774.309 306.144 774.027 307.225C773.697 308.435 773.534 309.683 773.541 310.936V311.01C773.534 312.263 773.697 313.512 774.027 314.721C774.311 315.811 774.783 316.843 775.42 317.774C775.995 318.611 776.74 319.319 777.608 319.852C778.461 320.36 779.438 320.626 780.432 320.622Z" fill="white"/>
<path d="M793.935 320.891L803.287 313.024C804.222 312.254 805.007 311.558 805.652 310.936C806.228 310.389 806.754 309.793 807.224 309.155C807.594 308.65 807.887 308.094 808.093 307.504C808.275 306.946 808.367 306.364 808.364 305.778C808.397 305.202 808.301 304.627 808.083 304.093C807.865 303.558 807.53 303.079 807.102 302.689C806.237 301.953 805.127 301.563 803.988 301.594C802.817 301.574 801.671 301.925 800.715 302.596C799.574 303.46 798.563 304.481 797.713 305.629L794.347 303.013C794.953 302.169 795.612 301.363 796.32 300.601C797.608 299.208 799.268 298.208 801.108 297.716C802.164 297.443 803.252 297.311 804.343 297.326C805.574 297.313 806.797 297.508 807.962 297.901C808.998 298.255 809.952 298.81 810.768 299.534C811.566 300.237 812.204 301.1 812.638 302.067C813.087 303.104 813.31 304.223 813.292 305.351V305.425C813.306 306.398 813.16 307.366 812.862 308.292C812.563 309.18 812.124 310.016 811.562 310.769C810.911 311.642 810.171 312.447 809.356 313.172C808.464 313.976 807.426 314.867 806.242 315.844L800.631 320.483H813.526V324.63H793.889V320.919L793.935 320.891Z" fill="white"/>
<path d="M818.286 320.798L827.637 312.931C828.572 312.161 829.358 311.465 830.003 310.843C830.578 310.297 831.104 309.701 831.574 309.062C831.945 308.557 832.238 308.001 832.443 307.411C832.626 306.853 832.717 306.271 832.715 305.685C832.748 305.11 832.652 304.534 832.433 304C832.215 303.465 831.88 302.986 831.452 302.596C830.587 301.86 829.477 301.47 828.338 301.501C827.168 301.481 826.021 301.832 825.065 302.503C823.924 303.367 822.913 304.389 822.064 305.537L818.697 302.92C819.3 302.074 819.959 301.268 820.67 300.508C821.958 299.116 823.619 298.115 825.458 297.623C826.514 297.35 827.602 297.219 828.694 297.233C829.924 297.221 831.148 297.415 832.313 297.809C833.348 298.162 834.302 298.717 835.118 299.441C835.916 300.144 836.554 301.007 836.988 301.974C837.437 303.011 837.66 304.13 837.643 305.258V305.333C837.656 306.305 837.511 307.273 837.212 308.199C836.913 309.088 836.474 309.923 835.913 310.676C835.261 311.549 834.522 312.355 833.706 313.079C832.821 313.889 831.78 314.78 830.583 315.751L824.972 320.39H837.867V324.537H818.23V320.826L818.286 320.798Z" fill="white"/>
<path d="M938.242 351.46H401.842V353.705H938.242V351.46Z" fill="white"/>
<path d="M404.432 110.888H425.005V184.096H404.432V110.888Z" fill="white"/>
<path d="M434.309 110.888H453.386L483.814 149.584V110.888H503.947V184.096H485.984L454.395 143.934V184.096H434.309V110.888Z" fill="white"/>
<path d="M549.899 185.561C544.481 185.614 539.107 184.602 534.086 182.583C529.413 180.717 525.154 177.962 521.546 174.475C518.015 171.034 515.203 166.935 513.27 162.414C511.258 157.758 510.236 152.739 510.269 147.673V147.459C510.247 142.446 511.244 137.48 513.199 132.858C515.154 128.235 518.028 124.051 521.649 120.555C525.301 117.058 529.596 114.289 534.301 112.4C544.463 108.43 555.765 108.43 565.927 112.4C570.599 114.272 574.861 117.026 578.476 120.508C582.007 123.949 584.819 128.048 586.752 132.569C588.764 137.226 589.786 142.244 589.753 147.311V147.524C589.775 152.537 588.778 157.503 586.823 162.125C584.868 166.748 581.994 170.932 578.373 174.429C574.721 177.926 570.426 180.694 565.721 182.583C560.696 184.6 555.319 185.612 549.899 185.561ZM550.058 167.266C552.713 167.301 555.345 166.766 557.772 165.699C560.021 164.709 562.037 163.265 563.692 161.459C565.339 159.636 566.629 157.525 567.498 155.234C568.421 152.828 568.887 150.274 568.872 147.7V147.487C568.886 144.913 568.42 142.359 567.498 139.954C565.719 135.26 562.152 131.449 557.567 129.34C555.145 128.279 552.528 127.727 549.881 127.717C547.234 127.708 544.613 128.241 542.184 129.285C539.94 130.295 537.922 131.741 536.252 133.539C534.581 135.336 533.291 137.448 532.459 139.75C531.572 142.163 531.126 144.714 531.14 147.283V147.496C531.126 150.07 531.592 152.624 532.515 155.03C533.391 157.343 534.702 159.471 536.377 161.301C538.057 163.129 540.089 164.605 542.352 165.643C544.768 166.743 547.4 167.297 550.058 167.266Z" fill="white"/>
<path d="M586.06 110.888H608.932L625.69 157.219L642.447 110.888H664.89L634.966 184.615H615.993L586.06 110.888Z" fill="white"/>
<path d="M678.608 110.368H698.32L729.731 184.096H707.802L702.425 171.024H673.96L668.686 184.096H647.179L678.608 110.368ZM696.534 155.336L688.314 134.527L679.982 155.336H696.534Z" fill="white"/>
<path d="M748.293 195.488L756.512 184.355C752.464 183.348 748.603 181.707 745.076 179.494C741.626 177.322 738.577 174.579 736.061 171.386C733.502 168.127 731.508 164.468 730.161 160.559C728.733 156.402 728.022 152.036 728.057 147.645V147.431C728.022 137.337 732.012 127.639 739.156 120.453C742.661 116.962 746.836 114.205 751.434 112.344C756.372 110.356 761.657 109.359 766.985 109.413C770.445 109.38 773.897 109.747 777.272 110.507C780.222 111.189 783.073 112.243 785.753 113.643C788.269 114.967 790.607 116.6 792.71 118.504C794.765 120.367 796.62 122.434 798.246 124.674L782.854 136.493C780.926 134.012 778.571 131.889 775.897 130.222C773.115 128.623 769.938 127.826 766.724 127.921C764.268 127.893 761.836 128.41 759.607 129.433C757.496 130.418 755.612 131.823 754.071 133.562C752.486 135.378 751.253 137.47 750.434 139.731C749.548 142.145 749.101 144.696 749.115 147.264V147.478C749.099 150.098 749.545 152.701 750.434 155.169C751.243 157.451 752.477 159.563 754.071 161.394C755.607 163.137 757.493 164.543 759.607 165.522C761.835 166.55 764.267 167.067 766.724 167.035C768.483 167.05 770.237 166.838 771.942 166.404C773.466 166 774.922 165.375 776.262 164.548C777.599 163.746 778.852 162.813 780.002 161.765C781.215 160.631 782.358 159.426 783.425 158.156L798.817 169.029C797.219 171.167 795.476 173.195 793.599 175.097C791.724 176.991 789.616 178.643 787.324 180.014C784.879 181.463 782.279 182.639 779.572 183.52C776.513 184.51 773.345 185.133 770.137 185.376L764.236 202.214L748.293 195.488Z" fill="white"/>
<path d="M826.721 110.368H846.433L877.853 184.096H855.924L850.547 171.024H822.083L816.818 184.096H795.31L826.721 110.368ZM814.386 104.097C815.509 98.8642 817.052 94.9677 819.062 92.3793C820.042 91.1042 821.321 90.0855 822.787 89.4114C824.254 88.7373 825.864 88.4281 827.478 88.5107C829.079 88.5199 830.672 88.7319 832.219 89.1415C833.84 89.5559 835.367 90.026 836.801 90.5517C838.241 91.0712 839.606 91.5444 840.803 91.9619C841.801 92.3366 842.852 92.5496 843.917 92.5927C844.517 92.6433 845.121 92.5613 845.685 92.3528C846.25 92.1443 846.76 91.8143 847.181 91.3867C848.058 90.2915 848.77 89.0758 849.294 87.7777L858.889 90.394C857.766 95.6264 856.208 99.5322 854.213 102.111C853.232 103.386 851.954 104.404 850.487 105.078C849.021 105.752 847.411 106.062 845.797 105.98C844.177 105.978 842.564 105.766 841 105.349C839.416 104.929 837.905 104.458 836.465 103.939C835.025 103.419 833.659 102.946 832.462 102.529C831.465 102.154 830.414 101.941 829.348 101.898C828.748 101.847 828.144 101.929 827.58 102.138C827.016 102.346 826.505 102.676 826.085 103.104C825.208 104.198 824.499 105.414 823.981 106.713L814.386 104.097ZM844.647 155.336L836.408 134.527L828.077 155.336H844.647Z" fill="white"/>
<path d="M911.582 185.561C906.165 185.614 900.791 184.602 895.77 182.583C891.096 180.715 886.833 177.96 883.22 174.475C879.689 171.034 876.877 166.935 874.945 162.414C872.937 157.769 871.916 152.764 871.943 147.71V147.496C871.921 142.483 872.918 137.518 874.873 132.895C876.829 128.273 879.702 124.088 883.323 120.592C886.975 117.095 891.27 114.326 895.975 112.437C906.137 108.467 917.439 108.467 927.601 112.437C932.273 114.309 936.535 117.063 940.15 120.545C943.681 123.987 946.494 128.085 948.426 132.606C950.424 137.231 951.446 142.214 951.428 147.246V147.459C951.449 152.472 950.452 157.438 948.497 162.06C946.542 166.683 943.668 170.867 940.047 174.364C936.395 177.861 932.1 180.629 927.395 182.518C922.379 184.559 917.004 185.593 911.582 185.561ZM911.741 167.266C914.397 167.301 917.028 166.766 919.456 165.699C921.705 164.709 923.721 163.265 925.375 161.459C927.022 159.636 928.313 157.525 929.181 155.234C930.105 152.828 930.571 150.274 930.556 147.7V147.487C930.57 144.913 930.104 142.359 929.181 139.954C927.402 135.261 923.836 131.449 919.25 129.34C916.829 128.279 914.212 127.727 911.565 127.717C908.918 127.708 906.297 128.241 903.868 129.285C901.623 130.295 899.606 131.741 897.935 133.539C896.265 135.336 894.975 137.448 894.143 139.75C893.256 142.163 892.81 144.714 892.824 147.283V147.496C892.81 150.07 893.276 152.624 894.199 155.03C895.079 157.342 896.389 159.469 898.061 161.301C899.741 163.129 901.772 164.605 904.036 165.643C906.451 166.744 909.083 167.299 911.741 167.266Z" fill="white"/>
<path d="M404.002 198.272H463.242V215.527H424.135V226.614H459.557V242.617H424.135V254.223H463.775V271.479H404.002V198.272Z" fill="white"/>
<path d="M470.096 198.272H491.706L509.315 226.614L526.885 198.272H548.496V271.479H528.185V229.434L509.371 258.092H508.95L490.248 229.648V271.479H470.105V198.272H470.096Z" fill="white"/>
<path d="M611.354 272.732C604.955 272.764 598.596 271.732 592.54 269.68C586.717 267.716 581.357 264.601 576.783 260.523L588.173 247.006C595.554 252.863 603.53 255.791 612.102 255.791C614.274 255.92 616.441 255.469 618.377 254.483C619.046 254.121 619.601 253.583 619.982 252.928C620.363 252.274 620.555 251.528 620.537 250.772V250.568C620.55 249.857 620.369 249.155 620.013 248.537C619.516 247.81 618.844 247.217 618.059 246.811C616.854 246.143 615.581 245.602 614.262 245.197C612.679 244.677 610.622 244.136 608.091 243.573C604.157 242.67 600.504 241.681 597.131 240.604C594.007 239.649 591.042 238.243 588.332 236.43C585.72 234.724 583.603 232.372 582.189 229.606C580.776 226.84 580.114 223.756 580.271 220.658V220.454C580.231 217.218 580.898 214.012 582.226 211.056C583.535 208.187 585.482 205.65 587.92 203.634C590.581 201.454 593.642 199.806 596.935 198.782C600.788 197.581 604.81 196.998 608.848 197.056C614.585 196.969 620.298 197.805 625.764 199.533C630.651 201.148 635.203 203.625 639.202 206.844L628.972 221.215C625.784 218.944 622.289 217.13 618.592 215.824C615.291 214.641 611.815 214.014 608.306 213.969C606.363 213.838 604.428 214.311 602.77 215.323C602.204 215.683 601.737 216.176 601.41 216.759C601.084 217.342 600.908 217.996 600.9 218.663V218.877C600.883 219.646 601.084 220.404 601.479 221.066C601.988 221.801 602.677 222.394 603.481 222.792C604.728 223.434 606.034 223.959 607.38 224.36C609.026 224.879 611.121 225.427 613.655 225.974C617.533 226.786 621.353 227.849 625.091 229.156C628.188 230.216 631.116 231.71 633.788 233.591C636.093 235.236 637.972 237.401 639.267 239.909C640.585 242.662 641.226 245.685 641.138 248.731V248.945C641.203 252.405 640.464 255.833 638.978 258.964C637.547 261.873 635.477 264.425 632.918 266.433C630.133 268.578 626.958 270.171 623.567 271.127C619.594 272.239 615.482 272.779 611.354 272.732Z" fill="white"/>
<path d="M672.389 197.743H692.102L723.512 271.47H701.584L696.207 258.398H667.742L662.477 271.47H640.969L672.389 197.743ZM690.315 242.719L682.115 221.91L673.783 242.719H690.315Z" fill="white"/>
<path d="M759.673 272.834C754.854 272.896 750.055 272.226 745.44 270.849C741.433 269.646 737.755 267.552 734.687 264.725C731.628 261.815 729.3 258.234 727.888 254.27C726.213 249.482 725.408 244.437 725.513 239.37V198.272H746.385V238.953C746.385 244.247 747.604 248.168 750.041 250.717C752.479 253.265 755.758 254.536 759.879 254.53C763.993 254.53 767.272 253.311 769.716 250.874C772.16 248.437 773.379 244.637 773.372 239.472V198.272H794.244V238.851C794.36 244.066 793.52 249.259 791.766 254.177C790.356 258.161 788.008 261.755 784.918 264.659C781.829 267.563 778.085 269.695 773.999 270.876C769.352 272.248 764.521 272.908 759.673 272.834Z" fill="white"/>
<path d="M804.268 198.272H832.733C838.726 198.178 844.693 199.078 850.388 200.934C855.22 202.516 859.675 205.06 863.48 208.412C867.004 211.587 869.775 215.497 871.597 219.86C873.502 224.491 874.456 229.452 874.402 234.453V234.667C874.466 239.702 873.512 244.699 871.597 249.362C869.744 253.796 866.939 257.776 863.377 261.024C859.538 264.452 855.036 267.069 850.145 268.715C844.427 270.644 838.417 271.585 832.378 271.498H804.324V198.272H804.268ZM833.079 253.491C839.213 253.491 844.151 251.886 847.891 248.676C851.632 245.466 853.502 240.898 853.502 234.973V234.76C853.502 228.902 851.632 224.353 847.891 221.112C844.151 217.872 839.213 216.251 833.079 216.251H824.719V253.481H833.079V253.491Z" fill="white"/>
<path d="M882.799 198.272H942.076V215.527H902.97V226.614H938.336V242.617H902.914V254.223H942.553V271.479H882.781V198.272H882.799Z" fill="white"/>
<path d="M420.208 40.3889C420.208 44.74 416.823 48.7386 409.426 48.7386C405.912 48.7983 402.458 47.8303 399.495 45.9554L401.842 41.3816C404.025 42.9236 406.644 43.7389 409.323 43.7102C412.334 43.7102 414.195 42.4949 414.195 40.3889C414.195 38.4314 412.745 37.2161 409.323 37.2161H406.536V33.2639L411.895 27.2521H400.813V22.465H419.039V26.343L413.166 32.9856C417.823 33.7185 420.208 36.5945 420.208 40.3889Z" fill="white"/>
<path d="M444.053 35.3699C444.053 27.5861 450.075 22.0104 458.183 22.0104C462.681 22.0104 466.44 23.634 468.89 26.5842L465.018 30.1281C464.222 29.1737 463.221 28.4072 462.089 27.884C460.957 27.3609 459.721 27.0944 458.472 27.1037C456.263 27.1037 454.143 27.9746 452.581 29.5248C451.018 31.075 450.141 33.1775 450.141 35.3699C450.141 37.5622 451.018 39.6647 452.581 41.2149C454.143 42.7651 456.263 43.636 458.472 43.636C459.726 43.6495 460.966 43.3811 462.1 42.8508C463.233 42.3206 464.231 41.5423 465.018 40.5745L468.89 44.1184C466.43 47.1057 462.68 48.7571 458.145 48.7571C450.075 48.7293 444.053 43.1629 444.053 35.3699Z" fill="white"/>
<path d="M470.779 35.3699C470.779 27.6975 476.801 22.0104 485.02 22.0104C493.24 22.0104 499.262 27.6511 499.262 35.3699C499.262 43.0886 493.203 48.7293 485.02 48.7293C476.838 48.7293 470.779 43.0515 470.779 35.3699ZM493.165 35.3699C493.128 33.7801 492.62 32.2364 491.703 30.9322C490.786 29.628 489.501 28.6212 488.01 28.038C486.519 27.4547 484.887 27.3209 483.32 27.6533C481.752 27.9858 480.319 28.7696 479.198 29.9068C478.078 31.0439 477.32 32.4837 477.021 34.0459C476.722 35.6082 476.893 37.2233 477.515 38.6891C478.137 40.1548 479.18 41.406 480.515 42.286C481.85 43.166 483.417 43.6356 485.02 43.636C486.112 43.6629 487.198 43.4658 488.21 43.0573C489.222 42.6487 490.138 42.0373 490.901 41.2614C491.664 40.4855 492.257 39.5618 492.643 38.548C493.03 37.5343 493.201 36.4523 493.146 35.3699H493.165Z" fill="white"/>
<path d="M527.671 22.4557V48.284H522.724L509.745 32.6052V48.284H503.798V22.4557H508.782L521.724 38.1345V22.4557H527.671Z" fill="white"/>
<path d="M539.874 27.2614V34.0617H551.928V38.8582H539.874V48.2654H533.852V22.465H553.489V27.2614H539.874Z" fill="white"/>
<path d="M577.774 43.4876V48.284H557.613V22.4557H577.251V27.2522H563.561V32.8186H575.652V37.4573H563.561V43.4319H577.737L577.774 43.4876Z" fill="white"/>
<path d="M599.161 48.284L594.139 41.0847H588.603V48.284H582.581V22.4557H593.802C600.76 22.4557 605.108 26.0368 605.108 31.8259C605.186 33.5704 604.712 35.2953 603.751 36.7581C602.789 38.221 601.39 39.348 599.75 39.9807L605.585 48.284H599.161ZM593.55 27.3264H588.603V36.3254H593.512C597.197 36.3254 599.058 34.6277 599.058 31.8259C599.058 29.0241 597.187 27.3264 593.512 27.3264H593.55Z" fill="white"/>
<path d="M630.075 43.4876V48.284H609.914V22.4557H629.552V27.2522H615.862V32.8186H627.953V37.4573H615.862V43.4319H630.038L630.075 43.4876ZM616.535 20.3591H612.299L617.208 15.0431H622.342L627.251 20.3591H623.015L619.78 17.5758L616.535 20.3591Z" fill="white"/>
<path d="M658.737 22.4557V48.284H653.79L640.81 32.6052V48.284H634.863V22.4557H639.847L652.789 38.1345V22.4557H658.737Z" fill="white"/>
<path d="M663.291 35.3699C663.291 27.5861 669.313 22.0104 677.42 22.0104C681.918 22.0104 685.677 23.634 688.127 26.5842L684.256 30.1281C683.46 29.1737 682.459 28.4072 681.327 27.884C680.194 27.3609 678.959 27.0944 677.71 27.1037C675.501 27.1037 673.381 27.9746 671.819 29.5248C670.256 31.075 669.378 33.1775 669.378 35.3699C669.378 37.5622 670.256 39.6647 671.819 41.2149C673.381 42.7651 675.501 43.636 677.71 43.636C678.964 43.6495 680.204 43.3811 681.337 42.8508C682.471 42.3206 683.469 41.5423 684.256 40.5745L688.127 44.1184C685.668 47.1057 681.918 48.7571 677.383 48.7571C669.313 48.7293 663.291 43.1629 663.291 35.3699Z" fill="white"/>
<path d="M692.195 22.4557H698.217V48.284H692.195V22.4557Z" fill="white"/>
<path d="M721.539 42.7547H709.448L707.138 48.3211H700.967L712.571 22.4929H718.519L730.161 48.3211H723.839L721.539 42.7547ZM719.669 38.2181L715.545 28.3284L711.412 38.2181H719.669Z" fill="white"/>
<path d="M402.618 59.1664H408.64V84.9947H402.618V59.1664Z" fill="white"/>
<path d="M438.695 59.1664V84.9947H433.748L420.769 69.3159V84.9947H414.821V59.1664H419.805L432.747 74.8823V59.2035L438.695 59.1664Z" fill="white"/>
<path d="M450.262 64.0371H441.93V59.1664H464.616V64.0371H456.284V84.9947H450.262V64.0371Z" fill="white"/>
<path d="M488.013 80.1983V84.9947H467.852V59.1664H487.489V63.9629H473.837V69.5293H485.928V74.168H473.837V80.1426H488.013V80.1983Z" fill="white"/>
<path d="M509.408 84.9947L504.387 77.7954H498.832V84.9947H492.81V59.1664H504.031C510.989 59.1664 515.337 62.7475 515.337 68.5366C515.431 70.28 514.972 72.0089 514.024 73.48C513.076 74.9511 511.688 76.0904 510.053 76.7378L515.889 85.0411L509.408 84.9947ZM503.798 64.0371H498.832V73.0268H503.741C507.426 73.0268 509.287 71.3291 509.287 68.5273C509.287 65.7255 507.435 64.0371 503.751 64.0371H503.798Z" fill="white"/>
<path d="M544.036 59.1664V84.9947H539.089L526.109 69.3159V84.9947H520.162V59.1664H525.146L538.107 74.8823V59.2035L544.036 59.1664Z" fill="white"/>
<path d="M567.357 79.4654H555.266L552.957 85.0318H546.785L558.389 59.2036H564.337L575.979 85.0318H569.658L567.357 79.4654ZM565.487 74.9195L561.363 65.0298L557.211 74.8823L565.487 74.9195Z" fill="white"/>
<path d="M576.699 72.0991C576.699 64.3154 582.721 58.7397 590.829 58.7397C595.326 58.7397 599.086 60.3632 601.536 63.3134L597.664 66.8574C596.868 65.903 595.867 65.1364 594.735 64.6133C593.603 64.0902 592.367 63.8236 591.118 63.833C588.909 63.833 586.789 64.7039 585.227 66.2541C583.664 67.8043 582.787 69.9068 582.787 72.0991C582.787 74.2915 583.664 76.394 585.227 77.9442C586.789 79.4944 588.909 80.3653 591.118 80.3653C592.372 80.3788 593.612 80.1104 594.746 79.5801C595.879 79.0498 596.877 78.2716 597.664 77.3037L601.536 80.8477C599.086 83.835 595.326 85.4864 590.791 85.4864C582.721 85.44 576.699 79.8643 576.699 72.0991Z" fill="white"/>
<path d="M605.604 59.1664H611.626V84.9947H605.604V59.1664Z" fill="white"/>
<path d="M616.161 72.0991C616.161 64.4267 622.183 58.7397 630.403 58.7397C638.622 58.7397 644.645 64.3803 644.645 72.0991C644.645 79.8179 638.585 85.4586 630.403 85.4586C622.22 85.4586 616.161 79.7623 616.161 72.0991ZM638.604 72.0991C638.567 70.5094 638.058 68.9657 637.141 67.6615C636.224 66.3572 634.939 65.3505 633.448 64.7672C631.957 64.184 630.326 64.0502 628.758 64.3826C627.191 64.715 625.757 65.4989 624.637 66.636C623.516 67.7732 622.759 69.213 622.459 70.7752C622.16 72.3374 622.332 73.9526 622.953 75.4183C623.575 76.8841 624.619 78.1353 625.954 79.0153C627.289 79.8953 628.856 80.3649 630.459 80.3653C631.549 80.3883 632.631 80.1884 633.64 79.7781C634.648 79.3677 635.561 78.7558 636.321 77.9803C637.08 77.2048 637.671 76.2824 638.056 75.2706C638.44 74.2588 638.611 73.1792 638.557 72.0991H638.604Z" fill="white"/>
<path d="M673.072 59.1664V84.9947H668.088L655.146 69.3159V84.9947H649.198V59.1664H654.183L667.153 74.8823V59.2035L673.072 59.1664Z" fill="white"/>
<path d="M696.394 79.4654H684.303L681.993 85.0318H675.821L687.426 59.2036H693.336L704.978 85.0318H698.657L696.394 79.4654ZM694.524 74.9195L690.4 65.0298L686.248 74.8823L694.524 74.9195Z" fill="white"/>
<path d="M707.746 59.1664H713.768V80.124H726.86V84.9947H707.783L707.746 59.1664Z" fill="white"/>
<path d="M740.737 59.1664H752.566C761.085 59.1664 766.92 64.2597 766.92 72.0806C766.92 79.9014 761.085 84.9947 752.566 84.9947H740.737V59.1664ZM752.248 80.0869C757.419 80.0869 760.804 77.0254 760.804 72.0806C760.804 67.1357 757.419 64.0742 752.248 64.0742H746.74V80.0869H752.248Z" fill="white"/>
<path d="M791.616 80.1983V84.9947H771.455V59.1664H791.093V63.9629H777.403V69.5293H789.494V74.168H777.403V80.1426H791.579L791.616 80.1983Z" fill="white"/>
<path d="M421.526 35.9729H431.99V38.1994H421.526V35.9729ZM425.631 33.5515C425.111 33.5566 424.593 33.4783 424.098 33.3195C423.641 33.1755 423.214 32.9524 422.835 32.6608C422.465 32.3741 422.167 32.0056 421.966 31.5847C421.737 31.1168 421.625 30.6014 421.638 30.0817V30.0075C421.603 29.486 421.704 28.9642 421.932 28.4928C422.16 28.0214 422.506 27.6164 422.938 27.3171C423.931 26.6727 425.1 26.3486 426.286 26.3893C426.824 26.3834 427.362 26.4206 427.894 26.5007C428.346 26.5752 428.793 26.6774 429.232 26.8068V26.6398C429.232 25.0812 428.296 24.2926 426.52 24.2926C425.964 24.289 425.41 24.3608 424.874 24.506C424.369 24.6452 423.845 24.8215 423.303 25.0256L422.564 22.9474C423.2 22.6528 423.86 22.4138 424.537 22.2331C425.288 22.0624 426.058 21.9845 426.828 22.0011C427.506 21.9519 428.187 22.0391 428.829 22.2575C429.472 22.476 430.064 22.8211 430.569 23.2721C431.003 23.6682 431.326 24.1704 431.504 24.7287C431.705 25.3617 431.803 26.0225 431.794 26.6862V33.301H429.157V31.9929C428.769 32.4574 428.297 32.8446 427.763 33.134C427.099 33.4476 426.366 33.5912 425.631 33.5515ZM426.333 31.5847C427.079 31.6103 427.812 31.381 428.409 30.9353C428.67 30.7453 428.881 30.4964 429.026 30.2093C429.171 29.9221 429.244 29.6049 429.241 29.2839V28.5881C428.889 28.4543 428.526 28.3519 428.156 28.2819C427.709 28.2025 427.255 28.1652 426.8 28.1706C426.143 28.1263 425.489 28.2886 424.93 28.6344C424.72 28.773 424.548 28.9623 424.432 29.1847C424.316 29.4071 424.259 29.6551 424.266 29.9054V29.9797C424.255 30.208 424.3 30.4356 424.398 30.6426C424.496 30.8496 424.643 31.0297 424.827 31.1672C425.267 31.4716 425.798 31.6188 426.333 31.5847Z" fill="white"/>
<path d="M347.558 215.899C344.472 247.253 331.56 276.859 310.637 300.557C289.715 324.255 261.834 340.853 230.912 348.018C218.876 355.327 205.863 360.917 192.255 364.624C199.028 365.521 205.854 365.97 212.687 365.97C252.944 365.962 291.549 350.091 320.012 321.847C348.475 293.604 364.465 255.3 364.465 215.36C364.622 202 362.954 188.681 359.509 175.765C352.963 185.97 353.899 184.114 348.073 193.586C348.204 196.147 348.278 198.717 348.278 201.315C348.278 206.232 348.026 211.065 347.558 215.899Z" fill="#6FBE53"/>
<path d="M347.559 215.899C348.026 211.102 348.269 206.259 348.269 201.342C348.269 198.754 348.194 196.175 348.064 193.614C344.735 201.175 342.088 208.393 342.322 209.2C342.378 209.395 342.079 209.145 341.536 208.597C336.55 227.953 327.715 246.124 315.55 262.044C329.03 248.78 339.886 233.128 347.559 215.899Z" fill="#6FBE53"/>
<path d="M347.559 215.899C348.026 211.102 348.269 206.259 348.269 201.342C348.269 198.754 348.194 196.175 348.064 193.614C344.735 201.175 342.088 208.393 342.322 209.2C342.378 209.395 342.079 209.145 341.536 208.597C336.55 227.953 327.715 246.124 315.55 262.044C329.03 248.78 339.886 233.128 347.559 215.899Z" fill="#7FDD5E"/>
<path d="M14.4428 197.548L14.2557 197.362C14.3118 197.687 14.3586 198.012 14.4054 198.336C14.3867 198.077 14.4428 197.817 14.4428 197.548Z" fill="#3EA05D"/>
<path d="M287.178 294.163C284.625 296.677 281.979 299.126 279.22 301.455C277.257 304.451 275.209 307.355 273.03 310.194C278.126 305.192 282.854 299.835 287.178 294.163Z" fill="#6FBE53"/>
<path d="M151.428 353.204C156.262 353.668 161.144 353.909 166.1 353.909C174.59 353.908 183.067 353.21 191.441 351.822C160.11 350.852 129.862 340.226 104.896 321.42C118.268 334.807 134.051 345.588 151.428 353.204Z" fill="#7FDD5E"/>
<path d="M88.7001 307.373C93.7562 312.434 99.1685 317.13 104.896 321.429C102.362 318.896 99.8934 316.271 97.5463 313.534C94.5165 311.595 91.5802 309.544 88.7001 307.373Z" fill="#6FBE53"/>
<path d="M273.03 310.185C275.218 307.401 277.257 304.442 279.221 301.445C254.324 322.674 223.163 335.323 190.408 337.498C157.654 339.672 125.072 331.254 97.5465 313.506C99.8936 316.234 102.362 318.868 104.896 321.401C129.862 340.206 160.111 350.832 191.441 351.803C222.316 346.642 250.817 332.104 273.011 310.194C273.018 310.192 273.025 310.189 273.03 310.185Z" fill="#6FBE53"/>
<path d="M65.1634 285.423C62.1243 283.475 59.188 281.425 56.3172 279.263C61.3733 284.323 66.7857 289.02 72.5134 293.318C69.9792 290.786 67.5105 288.16 65.1634 285.423Z" fill="#7FDD5E"/>
<path d="M56.317 279.263C34.2353 257.249 19.5817 228.98 14.3772 198.355C14.3211 199.997 14.293 201.649 14.293 203.318C14.2853 214.822 15.603 226.289 18.2205 237.496C28.1806 253.656 41.102 267.822 56.317 279.263Z" fill="#6FBE53"/>
<path d="M301.345 278.057C298.792 280.571 296.146 283.02 293.387 285.349C291.424 288.364 289.357 291.277 287.169 294.126C292.277 289.114 297.015 283.744 301.345 278.057Z" fill="#6FBE53"/>
<path d="M279.23 301.455C281.979 299.126 284.635 296.677 287.188 294.163C289.376 291.315 291.442 288.402 293.406 285.386C290.657 287.752 287.795 290.025 284.869 292.15C283.11 295.35 281.231 298.467 279.23 301.455Z" fill="#7FDD5E"/>
<path d="M72.5509 293.337C77.5895 298.392 82.9864 303.083 88.7003 307.374C86.1661 304.841 83.6974 302.215 81.3503 299.479C78.3392 297.54 75.403 295.508 72.5509 293.337Z" fill="#6FBE53"/>
<path d="M90.7294 305.064C87.5313 303.338 84.4361 301.473 81.3783 299.497C83.7254 302.225 86.1941 304.86 88.7283 307.392C91.5991 309.563 94.5354 311.614 97.5745 313.553C95.1432 310.813 92.8615 307.983 90.7294 305.064Z" fill="#7FDD5E"/>
<path d="M72.5508 293.337C75.4029 295.508 78.3391 297.53 81.3595 299.479C78.975 296.751 76.684 293.912 74.5426 291.008C71.3445 289.283 68.2492 287.418 65.1914 285.442C67.5385 288.169 70.0073 290.804 72.5414 293.337H72.5508Z" fill="#7FDD5E"/>
<path d="M90.7107 305.064C88.5038 302.132 86.4186 299.098 84.4174 295.99C81.0603 294.441 77.7594 292.799 74.5426 291.008C76.7121 293.921 78.975 296.751 81.3596 299.479C84.4174 301.473 87.5126 303.338 90.7107 305.064Z" fill="#7FDD5E"/>
<path d="M90.7294 305.064C113.171 317.389 138.41 323.836 164.061 323.795C172.552 323.794 181.028 323.096 189.403 321.707C170.023 321.103 150.942 316.8 133.202 309.034C116.308 307.451 99.8059 303.038 84.3987 295.981C86.3998 299.089 88.4851 302.123 90.692 305.054L90.7294 305.064Z" fill="#7FDD5E"/>
<path d="M74.5145 291.045C55.7561 265.996 42.4962 238.164 42.4962 204.524C42.4962 203.764 27.5344 183.02 27.5344 182.259L29.1708 201.741C32.1427 232.66 44.7194 261.901 65.1634 285.423C68.2212 287.418 71.3164 289.283 74.5145 291.045Z" fill="#6FBE53"/>
<path d="M64.78 249.538C68.6273 266.011 75.2676 281.715 84.4175 295.981C99.8185 303.037 116.314 307.45 133.202 309.034C104.814 296.588 80.9394 275.828 64.78 249.538Z" fill="#6FBE53"/>
<path d="M166.1 353.918C161.143 353.918 156.262 353.677 151.428 353.213C119.818 350.159 89.9688 337.353 66.0766 316.594C42.1843 295.836 25.4511 268.17 18.2299 237.487C10.8625 225.54 5.22772 212.622 1.49134 199.116C0.589577 205.833 0.136634 212.601 0.135437 219.378C0.155642 242.561 5.56545 265.427 15.9442 286.198C26.323 306.969 41.391 325.086 59.9765 339.138C78.5621 353.191 100.164 362.801 123.103 367.221C146.042 371.641 169.7 370.753 192.236 364.624C205.844 360.917 218.858 355.327 230.894 348.018C247.182 338.144 261.456 325.323 272.974 310.222C250.778 332.13 222.278 346.668 191.404 351.831C183.041 353.218 174.578 353.916 166.1 353.918Z" fill="white"/>
<path d="M331.727 197.288C330.045 222.959 321.723 247.766 307.564 269.318C304.815 271.683 301.953 273.956 299.045 276.062C297.306 279.235 295.426 282.325 293.434 285.34C296.184 283.011 298.839 280.562 301.392 278.048C306.482 273.049 311.204 267.695 315.522 262.026C327.704 246.102 336.549 227.92 341.537 208.551C339.928 206.909 336.029 202.381 331.727 197.288Z" fill="white"/>
<path d="M303.028 233.943C303.496 229.147 303.739 224.304 303.739 219.387C303.767 210.68 303.025 201.988 301.523 193.41L294.977 208.254C280.286 258.222 238.87 290.591 188.187 304.405C158.862 300.436 131.342 288.059 109.006 268.794C86.6707 249.528 70.4904 224.212 62.4514 195.952L62.1148 196.008C61.2849 202.435 60.8664 208.908 60.8617 215.388C60.854 226.892 62.1717 238.359 64.7892 249.566C80.9545 275.845 104.823 296.6 133.202 309.053C150.938 316.818 170.016 321.121 189.393 321.726C191.048 321.781 192.713 321.809 194.396 321.809C226.966 321.867 258.682 311.476 284.812 292.187C286.617 288.995 288.272 285.692 289.834 282.39C275.453 291.463 259.624 298.051 243.022 301.872C269.527 285.816 290.461 262.118 303.028 233.943Z" fill="white"/>
<path d="M216.035 297.809C214.114 297.059 212.262 296.146 210.499 295.081C199.09 288.16 193.545 275.599 195.275 260.699C197.819 238.795 217.39 209.859 264.689 194.329C295.856 184.124 320.197 169.122 337.02 149.797L339.114 147.394C338.624 136.23 336.909 125.153 333.999 114.358L333.822 114.747C323.395 136.762 303.804 154.213 275.573 166.608L273.264 167.656L273.105 165.151C271.019 131.753 285.785 102.121 316.99 77.0161L317.925 76.2553C314.172 69.9068 309.966 63.8331 305.338 58.0809L304.581 58.6747C264.511 90.2178 246.211 130.111 251.662 174.076L251.831 175.44L250.531 175.922C244.769 178.062 239.129 180.508 233.633 183.251L230.37 184.894L231.118 181.34L231.268 180.663C235.139 161.765 234.54 139.935 229.491 115.777C224.74 93.0567 228.032 74.2514 239.553 58.2572C247.623 47.0779 259.695 37.4944 275.433 29.757L275.573 29.6828C268.715 24.6864 261.456 20.2555 253.869 16.4347L252.055 17.5758C239.431 25.5173 229.182 34.8596 221.599 45.3431C206.422 66.31 201.774 91.5073 207.778 120.221C215.445 156.867 211.453 186.684 196.229 206.501C192.72 211.076 188.577 215.136 183.923 218.561L182.417 219.665L181.398 218.107C156.533 180.004 148.819 145.047 158.46 114.2L158.88 112.864H158.937V112.697L159.002 112.493C164.921 94.8194 176.685 78.3056 193.975 63.4061C211.686 48.1356 220.832 28.7458 221.159 5.75642V4.42048C213.845 2.63358 206.41 1.37782 198.913 0.663147V1.31258C199.764 19.6633 193.208 34.9802 179.434 46.8553C171.535 53.6091 164.311 61.1028 157.861 69.2323L155.804 71.8578L154.803 68.685C150.823 55.5348 143.18 43.7675 132.753 34.739C125.771 28.8278 117.815 24.1519 109.235 20.9157L106.748 19.9879C98.2277 24.7958 90.1816 30.3867 82.7153 36.6872C97.5649 38.9695 109.506 43.9329 118.25 51.4197C132.145 63.3597 138.467 82.5176 137.036 108.364V108.568L136.98 108.763C135.213 114.615 133.931 120.6 133.146 126.659C130.696 145.771 133.258 166.023 140.767 186.86L142.366 191.304L138.233 188.957C129.49 184.064 120.491 179.635 111.274 175.69L110.339 175.301L110.208 174.327C107.402 153.786 102.007 135.408 94.1518 119.701C87.3924 105.878 78.0067 93.479 66.5098 83.1855C62.1403 79.3162 57.4479 75.8216 52.4831 72.7392L51.6695 72.2382C47.7115 78.4761 44.2083 84.9869 41.1869 91.7207L42.2155 92.3887C46.0316 94.8693 49.6319 97.6622 52.9787 100.738C68.5203 114.775 79.4144 135.185 85.343 161.088L86.222 164.919L82.7714 163.017C63.3397 152.181 46.6854 135.575 33.2665 113.68C30.4835 123.82 28.7538 134.215 28.1046 144.704L30.1525 147.144C46.8443 166.97 66.5659 181.47 88.7842 190.182C160.292 218.274 170.139 241.207 163.014 271.35C159.965 284.227 152.587 293.077 141.702 296.937L140.674 297.28C137.766 298.203 134.731 298.673 131.678 298.671C129.9 298.666 128.126 298.508 126.376 298.198C161.649 311.947 200.755 312.518 236.42 299.803C234.194 300.197 231.939 300.399 229.678 300.406C225.007 300.391 220.38 299.51 216.035 297.809Z" fill="white"/>
<path d="M104.335 92.4072C100 101.398 99.2602 111.685 102.264 121.196C105.267 130.706 111.791 138.735 120.522 143.665C124.857 134.674 125.597 124.387 122.594 114.876C119.59 105.366 113.066 97.3369 104.335 92.4072Z" fill="#7DC143"/>
<path d="M191.45 120.861C195.349 112.622 196.245 103.297 193.985 94.476C184.447 97.6093 176.461 104.211 171.634 112.953C166.807 121.694 165.498 131.926 167.97 141.587C173.101 139.903 177.832 137.196 181.87 133.632C185.908 130.068 189.168 125.721 191.45 120.861Z" fill="#7DC143"/>
<path d="M100.006 80.857C108.966 82.8031 118.33 81.603 126.497 77.4615C121.31 68.9264 113.055 62.6584 103.396 59.9196C93.7364 57.1808 83.3899 58.1747 74.4396 62.7011C77.2272 67.2977 80.9334 71.2797 85.3301 74.402C89.7269 77.5244 94.7212 79.7211 100.006 80.857Z" fill="#7DC143"/>
<path d="M259.443 62.9979C258.56 72.0546 260.873 81.1346 265.989 88.687C273.912 82.5623 279.203 73.687 280.796 63.8476C282.389 54.0083 280.165 43.9356 274.573 35.6574C270.305 38.9501 266.761 43.0741 264.159 47.7759C261.557 52.4777 259.952 57.6579 259.443 62.9979Z" fill="#7DC143"/>
<path d="M243.48 70.1045C237.135 77.8306 233.976 87.655 234.638 97.5995C235.301 107.544 239.737 116.87 247.053 123.7C253.398 115.974 256.558 106.15 255.895 96.205C255.232 86.2605 250.796 76.9344 243.48 70.1045Z" fill="#7DC143"/>
<path d="M293.715 119.711C289.939 128.003 289.182 137.339 291.573 146.123C301.063 142.857 308.954 136.145 313.656 127.338C318.358 118.531 319.522 108.285 316.915 98.6603C311.804 100.412 307.11 103.184 303.12 106.804C299.13 110.424 295.929 114.817 293.715 119.711Z" fill="#7DC143"/>
<path d="M176.956 30.7219C179.187 21.9044 178.265 12.5924 174.347 4.3741C165.59 9.25837 159.023 17.2525 155.967 26.7474C152.912 36.2424 153.595 46.5331 157.88 55.5482C162.599 52.9211 166.727 49.3631 170.007 45.0934C173.288 40.8237 175.653 35.9327 176.956 30.7219Z" fill="#7DC143"/>
<path d="M174.815 167.953C172.028 176.62 172.359 185.978 175.75 194.431C184.805 190.095 191.866 182.514 195.51 173.218C199.155 163.921 199.111 153.599 195.387 144.333C190.514 146.667 186.174 149.967 182.636 154.03C179.098 158.092 176.436 162.831 174.815 167.953Z" fill="#7DC143"/>
<path d="M347.558 215.899C344.472 247.253 331.56 276.859 310.637 300.557C289.715 324.255 261.834 340.853 230.912 348.018C218.876 355.327 205.863 360.917 192.255 364.624C199.028 365.521 205.854 365.97 212.687 365.97C252.944 365.962 291.549 350.091 320.012 321.847C348.475 293.604 364.465 255.3 364.465 215.36C364.622 202 362.954 188.681 359.509 175.765C352.963 185.97 353.899 184.114 348.073 193.586C348.204 196.147 348.278 198.717 348.278 201.315C348.278 206.232 348.026 211.065 347.558 215.899Z" fill="#7FDD5E"/>
<path d="M273.03 310.185C275.218 307.401 277.257 304.442 279.221 301.445C254.324 322.674 223.163 335.323 190.408 337.498C157.654 339.672 125.072 331.254 97.5465 313.506C99.8936 316.234 102.362 318.868 104.896 321.401C129.862 340.206 160.111 350.832 191.441 351.803C222.316 346.642 250.817 332.104 273.011 310.194C273.018 310.192 273.025 310.189 273.03 310.185Z" fill="#7FDD5E"/>
<path d="M56.317 279.263C34.2353 257.249 19.5817 228.98 14.3772 198.355C14.3211 199.997 14.293 201.649 14.293 203.318C14.2853 214.822 15.603 226.289 18.2205 237.496C28.1806 253.656 41.102 267.822 56.317 279.263Z" fill="#7FDD5E"/>
<path d="M74.5145 291.045C55.7561 265.996 42.4962 238.164 42.4962 204.524C42.4962 203.764 27.5344 183.02 27.5344 182.259L29.1708 201.741C32.1427 232.66 44.7194 261.901 65.1634 285.423C68.2212 287.418 71.3164 289.283 74.5145 291.045Z" fill="#7FDD5E"/>
<path d="M64.78 249.538C68.6273 266.011 75.2676 281.715 84.4175 295.981C99.8185 303.037 116.314 307.45 133.202 309.034C104.814 296.588 80.9394 275.828 64.78 249.538Z" fill="#7FDD5E"/>
<path d="M104.335 92.4072C100 101.398 99.2602 111.685 102.264 121.196C105.267 130.706 111.791 138.735 120.522 143.665C124.857 134.674 125.597 124.387 122.594 114.876C119.59 105.366 113.066 97.3369 104.335 92.4072Z" fill="#92EC72"/>
<path d="M191.45 120.861C195.349 112.622 196.245 103.297 193.985 94.476C184.447 97.6093 176.461 104.211 171.634 112.953C166.807 121.694 165.498 131.926 167.97 141.587C173.101 139.903 177.832 137.196 181.87 133.632C185.908 130.068 189.168 125.721 191.45 120.861Z" fill="#92EC72"/>
<path d="M100.006 80.857C108.966 82.8031 118.33 81.603 126.497 77.4615C121.31 68.9264 113.055 62.6584 103.396 59.9196C93.7364 57.1808 83.3899 58.1747 74.4396 62.7011C77.2272 67.2977 80.9334 71.2797 85.3301 74.402C89.7269 77.5244 94.7212 79.7211 100.006 80.857Z" fill="#92EC72"/>
<path d="M259.443 62.9979C258.56 72.0546 260.873 81.1346 265.989 88.687C273.912 82.5623 279.203 73.687 280.796 63.8476C282.389 54.0083 280.165 43.9356 274.573 35.6574C270.305 38.9501 266.761 43.0741 264.159 47.7759C261.557 52.4777 259.952 57.6579 259.443 62.9979Z" fill="#92EC72"/>
<path d="M243.48 70.1045C237.135 77.8306 233.976 87.655 234.638 97.5995C235.301 107.544 239.737 116.87 247.053 123.7C253.398 115.974 256.558 106.15 255.895 96.205C255.232 86.2605 250.796 76.9344 243.48 70.1045Z" fill="#92EC72"/>
<path d="M293.715 119.711C289.939 128.003 289.182 137.339 291.573 146.123C301.063 142.857 308.954 136.145 313.656 127.338C318.358 118.531 319.522 108.285 316.915 98.6603C311.804 100.412 307.11 103.184 303.12 106.804C299.13 110.424 295.929 114.817 293.715 119.711Z" fill="#92EC72"/>
<path d="M176.956 30.7219C179.187 21.9044 178.265 12.5924 174.347 4.3741C165.59 9.25837 159.023 17.2525 155.967 26.7474C152.912 36.2424 153.595 46.5331 157.88 55.5482C162.599 52.9211 166.727 49.3631 170.007 45.0934C173.288 40.8237 175.653 35.9327 176.956 30.7219Z" fill="#92EC72"/>
<path d="M174.815 167.953C172.028 176.62 172.359 185.978 175.75 194.431C184.805 190.095 191.866 182.514 195.51 173.218C199.155 163.921 199.111 153.599 195.387 144.333C190.514 146.667 186.174 149.967 182.636 154.03C179.098 158.092 176.436 162.831 174.815 167.953Z" fill="#92EC72"/>
</svg>
