<svg width="841" height="947" viewBox="0 0 841 947" fill="none" xmlns="http://www.w3.org/2000/svg">
<path d="M197.334 855.563C216.613 874.905 260.681 874.905 280.304 855.563C260.336 837.242 216.958 834.866 197.334 855.563Z" fill="#F4B3D7" fill-opacity="0.3"/>
<path d="M293.758 855.563C313.037 874.905 357.105 874.905 376.728 855.563C356.76 837.241 313.382 834.866 293.758 855.563Z" fill="#F4B3D7" fill-opacity="0.3"/>
<path d="M285.84 764.674C266.498 783.953 266.498 828.02 285.84 847.644C304.161 827.676 306.536 784.297 285.84 764.674Z" fill="#F4B3D7" fill-opacity="0.3"/>
<path d="M285.84 863.34C266.498 882.619 266.498 926.686 285.84 946.31C304.161 926.342 306.536 882.963 285.84 863.34Z" fill="#F4B3D7" fill-opacity="0.3"/>
<path d="M96.4224 709.804C115.702 729.146 159.769 729.146 179.393 709.804C159.425 691.483 116.046 689.107 96.4224 709.804Z" fill="#F4B3D7" fill-opacity="0.3"/>
<path d="M192.846 709.804C212.126 729.146 256.193 729.146 275.817 709.804C255.849 691.483 212.47 689.107 192.846 709.804Z" fill="#F4B3D7" fill-opacity="0.3"/>
<path d="M184.928 618.915C165.586 638.194 165.586 682.261 184.928 701.885C203.25 681.917 205.625 638.538 184.928 618.915Z" fill="#F4B3D7" fill-opacity="0.3"/>
<path d="M184.928 717.581C165.586 736.86 165.586 780.928 184.928 800.551C203.25 780.583 205.625 737.205 184.928 717.581Z" fill="#F4B3D7" fill-opacity="0.3"/>
<path d="M96.4224 418.285C115.702 437.627 159.769 437.626 179.393 418.285C159.425 399.963 116.046 397.588 96.4224 418.285Z" fill="#F4B3D7" fill-opacity="0.3"/>
<path d="M192.846 418.285C212.126 437.627 256.193 437.626 275.817 418.285C255.849 399.963 212.47 397.588 192.846 418.285Z" fill="#F4B3D7" fill-opacity="0.3"/>
<path d="M184.928 327.395C165.586 346.675 165.586 390.742 184.928 410.366C203.25 390.398 205.625 347.019 184.928 327.395Z" fill="#F4B3D7" fill-opacity="0.3"/>
<path d="M184.928 426.061C165.586 445.341 165.586 489.408 184.928 509.032C203.25 489.064 205.625 445.685 184.928 426.061Z" fill="#F4B3D7" fill-opacity="0.3"/>
<path d="M-6.34094e-07 283.739C19.2794 303.081 63.3467 303.08 82.9704 283.739C63.0024 265.417 19.6237 263.042 -6.34094e-07 283.739Z" fill="#F4B3D7" fill-opacity="0.3"/>
<path d="M96.4238 283.739C115.703 303.081 159.771 303.08 179.394 283.739C159.426 265.417 116.048 263.042 96.4238 283.739Z" fill="#F4B3D7" fill-opacity="0.3"/>
<path d="M88.5056 192.849C69.1637 212.129 69.1641 256.196 88.5056 275.82C106.827 255.852 109.202 212.473 88.5056 192.849Z" fill="#F4B3D7" fill-opacity="0.3"/>
<path d="M88.5056 291.516C69.1637 310.795 69.1641 354.862 88.5056 374.486C106.827 354.518 109.202 311.139 88.5056 291.516Z" fill="#F4B3D7" fill-opacity="0.3"/>
<path d="M53.8179 149.191C73.0973 168.533 117.165 168.532 136.788 149.191C116.82 130.869 73.4416 128.494 53.8179 149.191Z" fill="#F4B3D7" fill-opacity="0.3"/>
<path d="M150.242 149.191C169.521 168.533 213.588 168.532 233.212 149.191C213.244 130.869 169.865 128.494 150.242 149.191Z" fill="#F4B3D7" fill-opacity="0.3"/>
<path d="M142.324 58.3015C122.982 77.5809 122.982 121.648 142.324 141.272C160.645 121.304 163.02 77.9252 142.324 58.3015Z" fill="#F4B3D7" fill-opacity="0.3"/>
<path d="M142.324 156.968C122.982 176.247 122.982 220.314 142.324 239.938C160.645 219.97 163.02 176.591 142.324 156.968Z" fill="#F4B3D7" fill-opacity="0.3"/>
<path d="M152.486 566.286C171.765 585.628 215.832 585.628 235.456 566.286C215.488 547.965 172.109 545.59 152.486 566.286Z" fill="#F4B3D7" fill-opacity="0.3"/>
<path d="M248.909 566.286C268.189 585.628 312.256 585.628 331.88 566.286C311.912 547.965 268.533 545.59 248.909 566.286Z" fill="#F4B3D7" fill-opacity="0.3"/>
<path d="M240.991 475.397C221.649 494.677 221.65 538.744 240.991 558.368C259.313 538.4 261.688 495.021 240.991 475.397Z" fill="#F4B3D7" fill-opacity="0.3"/>
<path d="M240.991 574.063C221.649 593.343 221.65 637.41 240.991 657.034C259.313 637.066 261.688 593.687 240.991 574.063Z" fill="#F4B3D7" fill-opacity="0.3"/>
<path d="M399.156 846.591C418.436 865.933 462.503 865.933 482.127 846.591C462.159 828.27 418.78 825.895 399.156 846.591Z" fill="#F4B3D7" fill-opacity="0.3"/>
<path d="M495.58 846.591C514.86 865.933 558.927 865.933 578.55 846.591C558.582 828.27 515.204 825.894 495.58 846.591Z" fill="#F4B3D7" fill-opacity="0.3"/>
<path d="M487.662 755.702C468.32 774.981 468.32 819.048 487.662 838.672C505.983 818.704 508.359 775.325 487.662 755.702Z" fill="#F4B3D7" fill-opacity="0.3"/>
<path d="M487.662 854.368C468.32 873.647 468.32 917.714 487.662 937.338C505.983 917.37 508.359 873.992 487.662 854.368Z" fill="#F4B3D7" fill-opacity="0.3"/>
<path d="M597 846.591C616.279 865.933 660.347 865.933 679.97 846.591C660.002 828.27 616.624 825.895 597 846.591Z" fill="#F4B3D7" fill-opacity="0.3"/>
<path d="M693.424 846.591C712.703 865.933 756.771 865.933 776.394 846.591C756.426 828.27 713.048 825.894 693.424 846.591Z" fill="#F4B3D7" fill-opacity="0.3"/>
<path d="M685.506 755.702C666.164 774.981 666.164 819.048 685.506 838.672C703.827 818.704 706.202 775.325 685.506 755.702Z" fill="#F4B3D7" fill-opacity="0.3"/>
<path d="M685.506 854.368C666.164 873.647 666.164 917.714 685.506 937.338C703.827 917.37 706.202 873.992 685.506 854.368Z" fill="#F4B3D7" fill-opacity="0.3"/>
<path d="M298.243 709.804C317.522 729.146 361.59 729.146 381.213 709.804C361.245 691.483 317.867 689.107 298.243 709.804Z" fill="#F4B3D7" fill-opacity="0.3"/>
<path d="M394.667 709.804C413.946 729.146 458.013 729.146 477.637 709.804C457.669 691.483 414.29 689.107 394.667 709.804Z" fill="#F4B3D7" fill-opacity="0.3"/>
<path d="M386.749 618.915C367.407 638.194 367.407 682.261 386.749 701.885C405.07 681.917 407.445 638.538 386.749 618.915Z" fill="#F4B3D7" fill-opacity="0.3"/>
<path d="M386.749 717.581C367.407 736.86 367.407 780.928 386.749 800.551C405.07 780.583 407.445 737.205 386.749 717.581Z" fill="#F4B3D7" fill-opacity="0.3"/>
<path d="M298.243 418.285C317.522 437.627 361.59 437.626 381.213 418.285C361.245 399.963 317.867 397.588 298.243 418.285Z" fill="#F4B3D7" fill-opacity="0.3"/>
<path d="M394.667 418.285C413.946 437.627 458.013 437.626 477.637 418.285C457.669 399.963 414.29 397.588 394.667 418.285Z" fill="#F4B3D7" fill-opacity="0.3"/>
<path d="M386.749 327.395C367.407 346.675 367.407 390.742 386.749 410.366C405.07 390.398 407.445 347.019 386.749 327.395Z" fill="#F4B3D7" fill-opacity="0.3"/>
<path d="M386.749 426.061C367.407 445.341 367.407 489.408 386.749 509.032C405.07 489.064 407.445 445.685 386.749 426.061Z" fill="#F4B3D7" fill-opacity="0.3"/>
<path d="M201.821 283.739C221.1 303.081 265.167 303.08 284.791 283.739C264.823 265.417 221.445 263.042 201.821 283.739Z" fill="#F4B3D7" fill-opacity="0.3"/>
<path d="M298.245 283.739C317.524 303.081 361.591 303.08 381.215 283.739C361.247 265.417 317.868 263.042 298.245 283.739Z" fill="#F4B3D7" fill-opacity="0.3"/>
<path d="M290.326 192.849C270.984 212.129 270.985 256.196 290.326 275.82C308.648 255.852 311.023 212.473 290.326 192.849Z" fill="#F4B3D7" fill-opacity="0.3"/>
<path d="M290.326 291.516C270.984 310.795 270.985 354.862 290.326 374.486C308.648 354.518 311.023 311.139 290.326 291.516Z" fill="#F4B3D7" fill-opacity="0.3"/>
<path d="M255.639 149.191C274.918 168.533 318.985 168.532 338.609 149.191C318.641 130.869 275.262 128.494 255.639 149.191Z" fill="#F4B3D7" fill-opacity="0.3"/>
<path d="M352.062 149.191C371.342 168.533 415.409 168.532 435.033 149.191C415.065 130.869 371.686 128.494 352.062 149.191Z" fill="#F4B3D7" fill-opacity="0.3"/>
<path d="M344.144 58.3015C324.802 77.5809 324.803 121.648 344.144 141.272C362.466 121.304 364.841 77.9252 344.144 58.3015Z" fill="#F4B3D7" fill-opacity="0.3"/>
<path d="M344.144 156.968C324.802 176.247 324.803 220.314 344.144 239.938C362.466 219.97 364.841 176.591 344.144 156.968Z" fill="#F4B3D7" fill-opacity="0.3"/>
<path d="M354.306 566.286C373.586 585.628 417.653 585.628 437.277 566.286C417.309 547.965 373.93 545.59 354.306 566.286Z" fill="#F4B3D7" fill-opacity="0.3"/>
<path d="M450.73 566.286C470.01 585.628 514.077 585.628 533.701 566.286C513.733 547.965 470.354 545.59 450.73 566.286Z" fill="#F4B3D7" fill-opacity="0.3"/>
<path d="M442.812 475.397C423.47 494.677 423.47 538.744 442.812 558.368C461.134 538.4 463.509 495.021 442.812 475.397Z" fill="#F4B3D7" fill-opacity="0.3"/>
<path d="M442.812 574.063C423.47 593.343 423.47 637.41 442.812 657.034C461.134 637.066 463.509 593.687 442.812 574.063Z" fill="#F4B3D7" fill-opacity="0.3"/>
<path d="M500.064 709.804C519.343 729.146 563.41 729.146 583.034 709.804C563.066 691.483 519.687 689.107 500.064 709.804Z" fill="#F4B3D7" fill-opacity="0.3"/>
<path d="M596.488 709.804C615.767 729.146 659.834 729.146 679.458 709.804C659.49 691.483 616.111 689.107 596.488 709.804Z" fill="#F4B3D7" fill-opacity="0.3"/>
<path d="M588.569 618.915C569.227 638.194 569.228 682.261 588.569 701.885C606.891 681.917 609.266 638.538 588.569 618.915Z" fill="#F4B3D7" fill-opacity="0.3"/>
<path d="M588.569 717.581C569.227 736.86 569.228 780.928 588.569 800.551C606.891 780.583 609.266 737.205 588.569 717.581Z" fill="#F4B3D7" fill-opacity="0.3"/>
<path d="M500.064 418.284C519.343 437.626 563.41 437.626 583.034 418.284C563.066 399.963 519.687 397.588 500.064 418.284Z" fill="#F4B3D7" fill-opacity="0.3"/>
<path d="M596.488 418.284C615.767 437.626 659.834 437.626 679.458 418.284C659.49 399.963 616.111 397.588 596.488 418.284Z" fill="#F4B3D7" fill-opacity="0.3"/>
<path d="M588.569 327.395C569.227 346.674 569.228 390.742 588.569 410.365C606.891 390.397 609.266 347.019 588.569 327.395Z" fill="#F4B3D7" fill-opacity="0.3"/>
<path d="M588.569 426.061C569.227 445.34 569.228 489.408 588.569 509.031C606.891 489.063 609.266 445.685 588.569 426.061Z" fill="#F4B3D7" fill-opacity="0.3"/>
<path d="M403.64 283.739C422.92 303.081 466.987 303.08 486.611 283.739C466.643 265.417 423.264 263.042 403.64 283.739Z" fill="#F4B3D7" fill-opacity="0.3"/>
<path d="M500.064 283.739C519.343 303.081 563.411 303.08 583.034 283.739C563.066 265.417 519.688 263.042 500.064 283.739Z" fill="#F4B3D7" fill-opacity="0.3"/>
<path d="M492.146 192.849C472.804 212.129 472.804 256.196 492.146 275.82C510.467 255.852 512.843 212.473 492.146 192.849Z" fill="#F4B3D7" fill-opacity="0.3"/>
<path d="M492.146 291.515C472.804 310.795 472.804 354.862 492.146 374.486C510.467 354.518 512.843 311.139 492.146 291.515Z" fill="#F4B3D7" fill-opacity="0.3"/>
<path d="M403.64 14.6455C422.92 33.9875 466.987 33.9871 486.611 14.6455C466.643 -3.67602 423.264 -6.0512 403.64 14.6455Z" fill="#F4B3D7" fill-opacity="0.3"/>
<path d="M500.064 14.6455C519.343 33.9875 563.411 33.9871 583.034 14.6455C563.066 -3.67602 519.688 -6.0512 500.064 14.6455Z" fill="#F4B3D7" fill-opacity="0.3"/>
<path d="M492.146 22.4222C472.804 41.7017 472.804 85.7689 492.146 105.393C510.467 85.4247 512.843 42.0459 492.146 22.4222Z" fill="#F4B3D7" fill-opacity="0.3"/>
<path d="M457.461 149.191C476.74 168.533 520.807 168.532 540.431 149.191C520.463 130.869 477.084 128.494 457.461 149.191Z" fill="#F4B3D7" fill-opacity="0.3"/>
<path d="M553.885 149.191C573.164 168.533 617.231 168.532 636.855 149.191C616.887 130.869 573.508 128.494 553.885 149.191Z" fill="#F4B3D7" fill-opacity="0.3"/>
<path d="M545.966 58.3015C526.624 77.5809 526.625 121.648 545.966 141.272C564.288 121.304 566.663 77.9252 545.966 58.3015Z" fill="#F4B3D7" fill-opacity="0.3"/>
<path d="M545.966 156.968C526.624 176.247 526.625 220.314 545.966 239.938C564.288 219.97 566.663 176.591 545.966 156.968Z" fill="#F4B3D7" fill-opacity="0.3"/>
<path d="M556.125 566.286C575.404 585.628 619.472 585.628 639.095 566.286C619.127 547.965 575.749 545.59 556.125 566.286Z" fill="#F4B3D7" fill-opacity="0.3"/>
<path d="M652.549 566.286C671.828 585.628 715.896 585.628 735.519 566.286C715.551 547.965 672.173 545.59 652.549 566.286Z" fill="#F4B3D7" fill-opacity="0.3"/>
<path d="M644.631 475.397C625.289 494.677 625.289 538.744 644.631 558.368C662.952 538.4 665.327 495.021 644.631 475.397Z" fill="#F4B3D7" fill-opacity="0.3"/>
<path d="M644.631 574.063C625.289 593.343 625.289 637.41 644.631 657.034C662.952 637.066 665.327 593.687 644.631 574.063Z" fill="#F4B3D7" fill-opacity="0.3"/>
<path d="M701.885 709.804C721.164 729.146 765.231 729.146 784.855 709.804C764.887 691.483 721.508 689.107 701.885 709.804Z" fill="#F4B3D7" fill-opacity="0.3"/>
<path d="M790.39 618.915C771.048 638.194 771.049 682.261 790.39 701.885C808.712 681.917 811.087 638.538 790.39 618.915Z" fill="#F4B3D7" fill-opacity="0.3"/>
<path d="M790.39 717.581C771.048 736.86 771.049 780.927 790.39 800.551C808.712 780.583 811.087 737.204 790.39 717.581Z" fill="#F4B3D7" fill-opacity="0.3"/>
<path d="M701.885 418.284C721.164 437.626 765.231 437.626 784.855 418.284C764.887 399.963 721.508 397.588 701.885 418.284Z" fill="#F4B3D7" fill-opacity="0.3"/>
<path d="M790.39 327.395C771.048 346.674 771.049 390.742 790.39 410.365C808.712 390.397 811.087 347.019 790.39 327.395Z" fill="#F4B3D7" fill-opacity="0.3"/>
<path d="M790.39 426.061C771.048 445.34 771.049 489.408 790.39 509.031C808.712 489.063 811.087 445.685 790.39 426.061Z" fill="#F4B3D7" fill-opacity="0.3"/>
<path d="M605.461 283.739C624.74 303.081 668.808 303.08 688.431 283.739C668.463 265.417 625.085 263.042 605.461 283.739Z" fill="#F4B3D7" fill-opacity="0.3"/>
<path d="M701.885 283.739C721.164 303.081 765.231 303.08 784.855 283.739C764.887 265.417 721.508 263.042 701.885 283.739Z" fill="#F4B3D7" fill-opacity="0.3"/>
<path d="M693.967 192.849C674.625 212.129 674.625 256.196 693.967 275.82C712.288 255.852 714.663 212.473 693.967 192.849Z" fill="#F4B3D7" fill-opacity="0.3"/>
<path d="M693.967 291.516C674.625 310.795 674.625 354.862 693.967 374.486C712.288 354.518 714.663 311.139 693.967 291.516Z" fill="#F4B3D7" fill-opacity="0.3"/>
<path d="M605.461 14.6455C624.74 33.9875 668.808 33.9871 688.431 14.6455C668.463 -3.67602 625.085 -6.0512 605.461 14.6455Z" fill="#F4B3D7" fill-opacity="0.3"/>
<path d="M701.885 14.6455C721.164 33.9875 765.231 33.9871 784.855 14.6455C764.887 -3.67602 721.508 -6.0512 701.885 14.6455Z" fill="#F4B3D7" fill-opacity="0.3"/>
<path d="M693.967 22.4222C674.625 41.7017 674.625 85.7689 693.967 105.393C712.288 85.4247 714.663 42.0459 693.967 22.4222Z" fill="#F4B3D7" fill-opacity="0.3"/>
<path d="M659.275 149.191C678.555 168.533 722.622 168.532 742.246 149.191C722.278 130.869 678.899 128.494 659.275 149.191Z" fill="#F4B3D7" fill-opacity="0.3"/>
<path d="M755.699 149.191C774.979 168.533 819.046 168.532 838.67 149.191C818.702 130.869 775.323 128.494 755.699 149.191Z" fill="#F4B3D7" fill-opacity="0.3"/>
<path d="M747.781 58.3015C728.439 77.5809 728.439 121.648 747.781 141.272C766.103 121.304 768.478 77.9252 747.781 58.3015Z" fill="#F4B3D7" fill-opacity="0.3"/>
<path d="M747.781 156.968C728.439 176.247 728.439 220.314 747.781 239.938C766.103 219.97 768.478 176.591 747.781 156.968Z" fill="#F4B3D7" fill-opacity="0.3"/>
<path d="M757.943 566.286C777.223 585.628 821.29 585.628 840.914 566.286C820.946 547.965 777.567 545.59 757.943 566.286Z" fill="#F4B3D7" fill-opacity="0.3"/>
</svg>
